<?xml version="1.0" encoding="UTF-8"?>
<!DOCTYPE svg PUBLIC "-//W3C//DTD SVG 1.1//EN" "http://www.w3.org/Graphics/SVG/1.1/DTD/svg11.dtd">
<!-- Creator: CorelDRAW X8 -->
<svg xmlns="http://www.w3.org/2000/svg" xml:space="preserve" width="210mm" height="297mm" version="1.1" style="shape-rendering:geometricPrecision; text-rendering:geometricPrecision; image-rendering:optimizeQuality; fill-rule:evenodd; clip-rule:evenodd"
viewBox="0 0 21000 29700"
 xmlns:xlink="http://www.w3.org/1999/xlink">
 <defs>
  <style type="text/css">
   <![CDATA[
    .fil1 {fill:#B22A2A}
    .fil2 {fill:#CEA97D}
    .fil0 {fill:#D1171C}
    .fil4 {fill:#DE1118}
    .fil5 {fill:#E3271B}
    .fil3 {fill:white}
    .fil6 {fill:#D1171C;fill-rule:nonzero}
   ]]>
  </style>
 </defs>
 <g id="Camada_x0020_1">
  <metadata id="CorelCorpID_0Corel-Layer"/>
  <g id="_1981391048560">
   <path class="fil0" d="M6251 6751l8561 0 2096 2020 0 8527c-227,2464 -2363,4937 -6408,7419 -4045,-2482 -6181,-4955 -6408,-7419l0 -8466 2159 -2081z"/>
   <polygon class="fil1" points="8186,6162 6642,7650 14395,7650 12878,6162 "/>
   <path class="fil2" d="M10500 23908c2283,-1440 5443,-3838 5721,-6642l0 -9878 -3143 0 -2546 -2405 -2546 2405 -3207 0 0 9878c278,2804 3438,5202 5721,6642z"/>
   <path class="fil3" d="M10500 23316c2057,-1329 4956,-3565 5222,-6076l0 -9353 -2843 0 -2347 -2217 -2348 2217 -2906 0 0 9353c266,2511 3165,4747 5222,6076z"/>
   <path class="fil4" d="M10500 23316c2057,-1329 4956,-3565 5222,-6076l0 -712c-1454,-1163 -3262,-1852 -5222,-1852 -1960,0 -3768,689 -5222,1852l0 712c266,2511 3165,4747 5222,6076z"/>
   <path class="fil2" d="M14722 19615c47,-66 92,-131 137,-198 -340,-513 -562,-969 -667,-1367 -86,-330 -91,-619 -15,-866 75,-244 231,-451 468,-621 182,-131 411,-241 687,-329 -75,-54 -151,-107 -229,-158 -229,86 -425,187 -589,305 -277,200 -461,445 -551,737 -89,288 -85,617 12,988 116,441 365,944 747,1509z"/>
   <path class="fil2" d="M14624 15780c-120,-69 -242,-135 -365,-198 -506,22 -1048,-17 -1558,-151 -504,-133 -977,-359 -1355,-712 -113,-11 -226,-20 -339,-27 433,492 1014,791 1637,955 655,173 1358,195 1980,133z"/>
   <path class="fil2" d="M9993 14692c-113,7 -226,16 -339,27 -378,353 -851,579 -1355,712 -510,134 -1052,173 -1558,151 -123,63 -245,129 -365,198 622,62 1325,40 1980,-133 623,-164 1204,-463 1637,-955z"/>
   <path class="fil2" d="M5897 16076c-78,51 -154,104 -229,158 276,88 505,198 687,329 237,170 393,377 468,621 76,247 71,536 -15,866 -105,398 -327,854 -667,1367 45,67 90,132 137,198 382,-565 631,-1068 747,-1509 97,-371 101,-700 12,-988 -90,-292 -274,-537 -551,-737 -164,-118 -360,-219 -589,-305z"/>
   <path class="fil2" d="M13810 21396c74,-71 148,-143 221,-216 -1060,-650 -2260,-1017 -3531,-1017 -1271,0 -2471,367 -3531,1017 73,73 147,145 222,216 998,-597 2121,-933 3309,-933 1188,0 2311,336 3310,933z"/>
   <path class="fil3" d="M12500 14922c-83,-21 -166,-40 -249,-58 -62,66 -125,129 -189,189 -179,-54 -360,-69 -549,-79 -214,-11 -429,-17 -643,-21 -73,-1 -146,-2 -219,-3l-8 0c-17,0 -35,0 -52,0l-182 0c-17,0 -35,0 -52,0l-8 0c-73,1 -146,2 -219,3 -214,4 -429,10 -643,21 -189,10 -370,25 -549,79 -64,-60 -127,-123 -189,-189 -83,18 -166,37 -249,58 69,78 139,153 211,223 -168,87 -309,204 -456,329 -210,179 -421,363 -620,554 -145,138 -285,283 -413,437 -104,125 -186,242 -226,404 -30,122 17,112 -104,139 -561,126 -1091,279 -1583,457 17,99 38,198 63,295 487,-178 1015,-332 1575,-458 105,-23 86,70 155,182 74,117 174,229 265,332 201,228 410,451 624,666 246,245 502,477 764,703 251,218 507,433 766,642 111,89 222,174 335,259 61,57 127,105 199,149 181,110 245,96 245,231l0 2720c68,44 134,87 200,130 66,-43 132,-86 200,-130l0 -2720c0,-121 64,-121 245,-231 72,-44 138,-92 199,-149 113,-85 224,-170 335,-259 259,-209 515,-424 766,-642 262,-226 518,-458 764,-703 214,-215 423,-438 624,-666 91,-103 191,-215 265,-332 79,-127 44,-207 167,-179 556,125 1079,278 1563,455 25,-97 46,-196 63,-295 -487,-176 -1012,-329 -1567,-453 -138,-31 -87,-10 -120,-143 -40,-162 -122,-279 -226,-404 -128,-154 -268,-299 -413,-437 -199,-191 -410,-375 -620,-554 -147,-125 -288,-242 -456,-329 72,-70 142,-145 211,-223z"/>
   <g>
    <path class="fil0" d="M5903 8782l677 0 132 0c299,21 448,203 446,545l0 1657 -413 0 0 -1789 -429 0 0 1789 -413 0 0 -2202z"/>
    <path class="fil0" d="M9278 8782l-413 0 0 2393 0 426 0 2440c136,-26 274,-48 413,-67l0 -2373 237 0 0 -426 -237 0 0 -2393z"/>
    <path class="fil5" d="M9641 10185l0 990 0 426 0 2331c137,-13 274,-23 413,-30l0 -2301 3622 0 0 -2819 -440 0 0 2390 -287 0 0 -987 -413 0 0 987 -1010 2 0 -1847c2,-342 -147,-524 -447,-545l-131 0 -677 0 0 1216 267 0 146 0 0 -803 429 0 0 1979 -1059 1 0 -990 -413 0z"/>
    <rect class="fil0" x="10271" y="10185" width="413" height="799"/>
    <rect class="fil5" x="7384" y="11788" width="413" height="451"/>
    <rect class="fil5" x="8226" y="11788" width="413" height="451"/>
    <path class="fil0" d="M7384 12426l413 0 0 1882c-139,44 -277,92 -413,143l0 -2025z"/>
    <path class="fil0" d="M8226 12426l413 0 0 1660c-139,29 -277,62 -413,98l0 -1758z"/>
    <path class="fil0" d="M13263 11788l413 0 0 2685c-136,-52 -274,-101 -413,-146l0 -2539z"/>
    <path class="fil0" d="M11694 11788l413 0 0 2248c-136,-25 -274,-48 -413,-66l0 -2182z"/>
    <rect class="fil5" x="12536" y="11788" width="413" height="451"/>
    <path class="fil0" d="M12536 12426l413 0 0 1806c-136,-39 -274,-75 -413,-107l0 -1699z"/>
    <path class="fil0" d="M12142 8782l130 0 100 0 131 0c299,21 448,203 446,545l0 671 -413 0 0 -803 -429 0 0 1789 -413 0 0 -1657c-2,-342 147,-524 448,-545z"/>
    <rect class="fil5" x="5903" y="11172" width="413" height="429"/>
    <path class="fil0" d="M10271 11788l413 0 0 2105c-61,-2 -123,-3 -184,-3 -77,0 -153,1 -229,3l0 -2105z"/>
    <path class="fil5" d="M13888 8782l413 0 0 5956c-136,-64 -274,-124 -413,-181l0 -5775z"/>
    <path class="fil0" d="M14730 8782l413 0 0 6405c-135,-82 -273,-160 -413,-235l0 0 -271 -2526 0 -1825 271 1249 0 -3068z"/>
    <path class="fil5" d="M7158 11605l0 2455 0 85c-12,238 -127,418 -347,541 -311,141 -614,299 -908,473l0 -3371 413 0 0 2688c50,-33 101,-66 147,-96 100,-66 170,-121 234,-195 16,-19 32,-40 48,-60l0 -2299 0 -33c-5,-117 -63,-179 -174,-187l-51 1 0 -435 1705 5 1 -1982 -429 0 0 1789 -413 0 0 -1657c-2,-342 147,-524 447,-545l131 0 99 0 131 0c300,21 449,203 447,545l0 2274 -1481 4z"/>
    <path class="fil0" d="M11112 11788c0,0 414,0 414,451l0 1710c-137,-15 -275,-28 -414,-37l0 -1673 0 -100c-13,-188 -109,-305 -286,-351 286,0 0,0 286,0l0 0z"/>
    <polygon class="fil0" points="10054,8782 9641,8782 9641,9998 10054,9998 "/>
   </g>
   <path class="fil6" d="M9793 7011l0 792 179 0 0 -300 358 0 0 -149 -358 0 0 -195 389 0 1 -148 -569 0zm1223 792l191 0 -338 -792 -185 0 -344 792 184 0 63 -154 366 0 63 154zm-371 -297l126 -308 125 308 -251 0z"/>
   <path class="fil2" d="M10919 19818c-48,46 -99,84 -156,119 -85,52 -163,87 -263,85 -100,2 -178,-33 -263,-85 -57,-35 -108,-73 -156,-119 -115,-86 -228,-173 -341,-263 -256,-206 -508,-419 -756,-634 -256,-221 -506,-447 -745,-686 -210,-210 -413,-428 -610,-650 -77,-88 -168,-187 -230,-287 -67,-107 -95,-220 -64,-344 26,-106 89,-184 156,-266 119,-143 251,-279 385,-408 195,-186 400,-365 606,-540 147,-125 295,-252 477,-325 174,-69 361,-83 546,-92 210,-11 421,-16 631,-20 73,-2 145,-2 218,-3l2 0c18,-1 35,-1 53,-1l182 0c18,0 35,0 46,1l9 0c73,1 145,1 218,3 210,4 421,9 631,20 185,9 372,23 546,92 182,73 330,200 477,325 206,175 411,354 606,540 134,129 266,265 385,408 67,82 130,160 156,266 31,124 3,237 -64,344 -62,100 -153,199 -230,287 -197,222 -400,440 -610,650 -239,239 -489,465 -745,686 -248,215 -500,428 -756,634 -113,90 -226,177 -341,263z"/>
   <path class="fil3" d="M13109 17353c-135,152 -364,403 -595,634 -231,232 -464,443 -726,670 -262,227 -553,469 -747,625 -189,152 -287,223 -352,271 -41,43 -80,68 -108,85 -49,30 -65,36 -81,35 -16,1 -32,-5 -81,-35 -28,-17 -67,-42 -108,-85 -65,-48 -163,-119 -352,-271 -194,-156 -485,-398 -747,-625 -262,-227 -495,-438 -726,-670 -231,-231 -460,-482 -595,-634 -134,-152 -174,-205 -196,-240 -22,-35 -26,-53 -21,-75 6,-22 21,-48 86,-126 65,-79 180,-208 358,-379 178,-171 421,-382 590,-526 170,-145 266,-222 380,-267 113,-45 243,-58 435,-68 192,-10 447,-17 620,-20 93,-2 162,-2 216,-3l2 0 1 0 1 0 0 0c15,0 31,0 46,0l29 0 1 0 2 0 0 0 2 0 1 0 0 0 2 0 1 0 0 0 2 0 1 0 1 0 1 0 1 0 1 0 2 0 0 0 2 0 1 0 0 0 2 0 1 0 1 0 2 0 0 0 1 0 2 0 0 0 2 0 1 0 1 0 2 0 0 0 2 0 0 0 2 0 1 0 1 0 2 0 0 0 2 0 0 0 2 0 1 0 1 0 1 0 1 0 2 0 0 0 2 0 1 0 1 0 1 0 2 0 0 0 2 0 0 0 2 0 1 0 1 0 1 0 2 0 0 0 2 0 1 0 1 0 1 0 1 0 2 0 0 0 2 0 0 0 2 0 1 0 1 0 2 0 0 0 2 0 0 0 2 0 1 0 1 0 2 0 0 0 2 0 1 0 0 0 2 0 1 0 1 0 2 0 0 0 1 0 2 0 0 0 2 0 1 0 1 0 1 0 1 0 1 0 2 0 0 0 1 0 2 0 0 0 1 0 2 0 0 0 2 0 1 0 29 0c15,0 31,0 46,0l0 0 1 0 1 0 2 0c54,1 123,1 216,3 173,3 428,10 620,20 192,10 322,23 435,68 114,45 210,122 380,267 169,144 412,355 590,526 178,171 293,300 358,379 65,78 80,104 86,126 5,22 1,40 -21,75 -22,35 -62,88 -196,240z"/>
   <path class="fil4" d="M12905 17058c-84,-95 -174,-186 -265,-273 -158,-151 -325,-298 -492,-442l111 693 -641 -747 -139 938 -587 -1089 -392 1281 -391 -1281 -588 1089 -139 -938 -641 747 111 -693c-167,144 -334,291 -492,442 -91,87 -181,178 -265,273 21,23 42,45 58,64 187,211 381,419 580,618 227,228 465,442 708,653 242,209 488,416 738,617 106,85 212,167 321,248 109,-81 215,-163 321,-248 250,-201 496,-408 738,-617 243,-211 481,-425 708,-653 199,-199 393,-407 580,-618 16,-19 37,-41 58,-64z"/>
  </g>
 </g>
</svg>
