<?xml version="1.0" encoding="UTF-8" standalone="no"?>
<svg
   xmlns:dc="http://purl.org/dc/elements/1.1/"
   xmlns:cc="http://creativecommons.org/ns#"
   xmlns:rdf="http://www.w3.org/1999/02/22-rdf-syntax-ns#"
   xmlns:svg="http://www.w3.org/2000/svg"
   xmlns="http://www.w3.org/2000/svg"
   xmlns:sodipodi="http://sodipodi.sourceforge.net/DTD/sodipodi-0.dtd"
   xmlns:inkscape="http://www.inkscape.org/namespaces/inkscape"
   viewBox="0 0 543 600"
   height="600"
   width="543"
   xml:space="preserve"
   version="1.1"
   id="svg2"
   inkscape:version="0.91 r13725"
   sodipodi:docname="Logo US St Cyr copie.svg"><sodipodi:namedview
     pagecolor="#ffffff"
     bordercolor="#666666"
     borderopacity="1"
     objecttolerance="10"
     gridtolerance="10"
     guidetolerance="10"
     inkscape:pageopacity="0"
     inkscape:pageshadow="2"
     inkscape:window-width="1280"
     inkscape:window-height="691"
     id="namedview19"
     showgrid="false"
     inkscape:zoom="0.2540177"
     inkscape:cx="-116.59346"
     inkscape:cy="510.15399"
     inkscape:window-x="0"
     inkscape:window-y="1"
     inkscape:window-maximized="1"
     inkscape:current-layer="svg2"
     showguides="false" /><metadata
     id="metadata8"><rdf:RDF><cc:Work
         rdf:about=""><dc:format>image/svg+xml</dc:format><dc:type
           rdf:resource="http://purl.org/dc/dcmitype/StillImage" /><dc:title></dc:title></cc:Work></rdf:RDF></metadata><defs
     id="defs6" /><g
     id="g5356"
     transform="matrix(1.5611408,0,0,1.5611408,349.60389,-482.15837)"><path
       sodipodi:nodetypes="scssssccsssscssssccssssssccss"
       inkscape:connector-curvature="0"
       id="path5223"
       d="m -171.26542,308.85795 c -0.31882,-0.0131 -0.52968,-0.0101 -0.61719,0.01 -1.71129,0.38841 -33.26562,30.64965 -33.26562,31.90234 0,0.54278 2.73739,4.04594 6.08398,7.78516 5.55954,6.21181 6.20686,7.37998 7.5,13.52734 3.06462,14.56873 2.78685,16.38777 -13.72656,90.04297 -20.20183,90.10676 -20.69963,93.50868 -16.62891,113.54101 4.06975,19.643 13.06415,40.55798 32.32227,54.04688 21.64987,15.93771 18.94511,13.747 45.60938,26.50977 8.08252,3.86867 21.78515,8.63209 29.77734,12.1582 7.99219,3.52612 18.960943,8.15923 24.375003,10.29492 11.41246,4.5019 33.2984,17.12412 35.23633,20.32227 0.72927,1.20351 3.70686,2.89648 4.49218,4.18554 0.78532,-1.28906 3.76488,-2.98203 4.49415,-4.18554 1.93792,-3.19815 23.82386,-15.82037 35.23632,-20.32227 5.4140601,-2.13569 16.3828101,-6.7688 24.375,-10.29492 7.99219,-3.52611 21.69287,-8.28953 29.77539,-12.1582 26.66426,-12.76277 23.96146,-10.57206 45.61133,-26.50977 19.258117,-13.4889 28.252517,-34.40388 32.322267,-54.04688 4.07072,-20.03233 3.57097,-23.43425 -16.63086,-113.54101 -16.513407,-73.6552 -16.789227,-75.47424 -13.724607,-90.04297 1.29314,-6.14736 1.94046,-7.31553 7.5,-13.52734 3.346587,-3.73922 6.083977,-7.24238 6.083977,-7.78516 0,-1.25269 -31.556277,-31.51393 -33.267577,-31.90234 -0.70006,-0.15889 -9.21524,0.78242 -18.92382,2.09179 -45.8770599,6.18731 -56.4434599,7.27704 -82.07813,8.4668 -14.05557,0.84296 -28.42375,0.5989 -41.54492,0 -25.63467,-1.18976 -36.201063,-2.27949 -82.078133,-8.4668 -8.495,-1.14569 -16.07682,-2.00993 -18.30859,-2.10156 z"
       style="fill:#002060;fill-opacity:1" /><g
       id="g5307"><g
         id="g5203"
         transform="matrix(0.97205731,0,0,0.97205731,-3.6972027,16.638872)"><g
           style="fill:#3366ff;fill-opacity:1"
           transform="matrix(5.7327912,0.25188842,0.25188842,-5.7327912,-2424.4374,4832.5961)"
           clip-path="none"
           id="g1156"><path
             style="fill:#3366ff;fill-opacity:1;fill-rule:evenodd;stroke:none"
             d="m 406.7698,770.3899 c 1.20878,-0.0721 2.21146,0.69271 0.58204,0.83476 -0.65713,0.13257 -2.78983,-0.40889 -1.91232,0.65443 1.43918,-0.17477 -0.15,0.6691 -0.0457,1.18581 0.16776,0.97876 -0.97179,0.2921 -1.49014,0.35795 -0.41271,-0.0403 -1.5272,-0.46698 -1.55286,0.164 0.31814,0.18398 1.72844,0.17295 0.833,0.64105 -0.54652,0.56311 -0.59191,0.60525 -1.46954,0.44466 -0.59992,-0.21214 -1.05195,-0.13842 -1.64975,-0.23807 -0.94606,-0.19341 -1.9366,-0.31597 -2.83062,-0.67545 -0.71787,0.0666 -1.24938,-0.3881 -1.91909,-0.53914 -0.59362,0.17969 -1.21024,-0.28538 -1.82966,-0.42002 -0.98202,-0.33517 -2.08263,-0.44044 -2.99632,-0.91798 -1.20543,-0.23407 -2.38295,-0.705 -3.55885,-1.09575 -0.60191,-0.068 -1.08918,-0.46135 -1.69954,-0.4716 -0.66981,-0.41782 -1.49107,-0.60424 -2.20286,-0.85457 -1.80115,-0.20453 -3.49441,-1.09141 -5.21875,-1.66775 -2.36785,-0.88403 -4.73569,-1.76805 -7.10354,-2.65207 -0.589,-0.81685 -1.15258,-1.2833 -1.98483,-1.72593 -1.84579,-0.83908 -3.6579,-1.82875 -5.48575,-2.79413 -2.2114,-1.1181 -4.30607,-2.4505 -6.45225,-3.661 -0.82822,-0.69331 -2.79189,-1.43668 -2.59,-2.292 1.16722,0.45694 2.34644,1.33722 3.38012,1.54125 0.6816,-0.41075 1.13273,0.79038 1.84413,0.86475 0.76493,0.22303 1.38525,0.84431 2.151,0.989 0.78736,-0.75821 2.04819,0.51708 3.04134,0.71046 1.15159,0.35402 2.22853,1.05819 3.45266,1.07254 0.8373,0.26291 1.79636,0.47601 2.5502,0.77107 1.4118,0.54515 2.83958,1.24778 4.27156,1.77495 0.67678,0.2702 1.40988,0.55171 2.11874,0.84582 2.51102,1.00473 5.2229,1.30301 7.84213,1.92246 1.24445,0.12046 2.37156,0.7762 3.5779,0.83093 0.59026,0.28697 1.31986,0.34041 1.98233,0.54869 0.94716,0.29201 1.95359,0.5215 2.87224,0.78655 0.57317,0.15411 1.26759,0.23385 1.87973,0.43091 0.5844,0.28683 1.26724,0.13953 1.76519,0.42003 1.47956,0.19635 2.86913,0.65155 4.35558,0.76926 1.22331,-0.43565 2.57895,-0.15421 3.8835,-0.33887 0.64285,0.19696 -0.95794,0.89318 0.524,0.833 0.76021,0.08 2.75218,0.16016 0.82327,0.30137 -0.48911,0.36307 -0.26667,0.68494 0.26173,0.64863 z"
             id="path1158"
             inkscape:connector-curvature="0" /></g><g
           id="g5188"><path
             style="fill:#ffff00;fill-opacity:1"
             d="m 63.678361,387.4771 c 1.446679,5.11408 -8.712613,-0.32831 -5.906408,4.88065 -0.578452,2.75841 -0.626996,7.24674 -3.957485,7.9001 -7.392842,2.55979 -14.785684,5.11958 -22.178526,7.67937 -0.770377,-4.17102 -6.308913,-2.59058 -8.522615,-4.8638 -1.389063,-2.79749 -3.776984,-6.98622 -7.272139,-4.72645 -1.643677,-1.27913 -6.1516976,-2.03988 -9.461209,-2.24973 3.2285795,1.99976 -0.4856922,6.51054 -3.0346124,5.84443 -3.31221165,-2.94807 -7.1941746,0.97508 -10.8762748,1.85248 -9.4612038,3.61037 -19.0094828,7.62148 -28.6095488,10.48253 -8.767606,-0.33409 -16.450932,-5.36102 -25.242904,-5.43177 -6.167639,-3.04733 -12.130902,-7.42635 -18.496385,-10.2307 -4.920972,-3.77374 -0.839933,2.13945 -3.325488,5.07593 -1.532081,3.54358 -3.713856,7.21306 -8.20722,5.90789 -4.543693,0.80295 -9.053196,-2.04132 -13.301616,-1.73648 -3.32787,2.21367 -6.18106,-3.55349 -9.93182,-3.23615 -13.99483,-3.1259 -28.00989,-6.16442 -42.01249,-9.25677 -0.45357,4.43106 2.35582,9.23616 -0.0194,13.20935 -0.67898,7.20513 -1.38245,17.11568 -5.51931,21.91328 -3.58213,8.54802 -9.01912,15.74601 -15.64467,22.05698 -2.72379,3.49877 -4.40083,7.45179 -3.58045,11.93607 -0.51216,8.60681 1.70679,17.72496 -1.58659,25.9041 0.11758,6.16837 -11.12005,17.30087 0.52532,13.17772 5.98872,-0.70127 12.21161,-2.59596 18.05585,-2.5609 3.93287,2.95935 9.85733,4.21398 10.81119,9.72323 2.22818,3.69395 2.62183,7.67572 1.77002,11.85288 5.71713,4.75608 9.17403,12.74533 16.94638,14.33118 6.01347,1.65793 12.42,2.55989 18.19415,4.67809 3.44835,3.04448 6.89669,6.08895 10.34504,9.13343 1.50084,-3.19805 5.19279,-6.03288 8.566157,-5.51571 2.825314,-0.76064 6.382763,5.62512 8.275342,0.86579 2.49307,-4.53908 7.385708,-6.68868 12.226182,-7.41799 5.088781,0.94417 10.893267,0.15394 14.584117,4.48581 4.840327,3.70422 9.680653,7.40844 14.52098,11.11266 4.291394,-0.84761 3.732519,-0.89556 7.215187,-3.01089 3.174913,0.54017 6.56156,-1.94868 7.287843,2.90294 0.578228,5.50655 3.892437,-4.41983 1.405706,-5.97574 -3.514201,-5.23108 -5.96152,-11.34618 -11.091093,-15.30862 -0.561804,-3.73347 -3.821091,-5.77934 -4.88348,-9.21749 -3.010684,-2.40058 -3.591465,-5.79795 -6.142486,-8.75232 -3.464502,-5.20076 -7.588728,-10.06162 -9.976479,-15.88393 -4.416981,-0.26715 -2.997056,-6.63704 1.094401,-5.91995 3.475019,0.68329 5.230546,-4.43553 8.615598,-5.63019 4.040157,-2.68221 8.009816,-7.02332 12.628364,-7.90826 2.788784,1.01778 8.927329,-0.20772 6.365888,-4.13925 -2.00447,-3.52978 -5.275726,-6.77673 -6.515821,-10.47717 -0.251677,-4.08288 1.495867,-7.77241 6.044221,-6.64971 9.103833,4.44235 17.785572,9.57302 25.788148,15.8017 0.6762081,5.47157 3.4429277,11.02656 0.8221041,16.36658 -0.2277297,2.64081 4.5346051,7.64729 7.3200146,6.43083 C 16.078395,489.13662 34.191526,480.9584 52.4127,473.04638 c 1.228061,-4.59356 -4.051483,-5.90343 -7.206048,-7.28883 -5.552575,-1.89994 0.748817,-4.6167 1.519651,-7.04236 3.953814,-2.35557 5.7764,-4.48478 2.898325,-8.8716 0.109671,-3.2224 0.716571,-9.87016 5.179641,-6.16061 4.767449,1.10473 7.748321,5.22235 11.277231,8.28182 4.700957,-1.10294 5.596072,-4.63193 5.186588,-8.99255 2.354302,-17.6804 6.200915,-35.18359 9.136597,-52.79495 2.202193,-3.70333 -2.689488,-2.65907 -4.720927,-1.44711 -3.166907,0.95244 -6.001479,-0.90373 -9.359866,-1.56361 -1.973653,-0.0346 -3.668893,-5.91388 -2.68918,-0.0394 l 0.04361,0.34991 0,-4e-5 z"
             id="path104"
             inkscape:connector-curvature="0" /><path
             style="clip-rule:evenodd;fill:#339966;fill-opacity:1"
             d="m -156.65904,395.36879 0,0.19792 65.879434,50.8747 -6.724536,-12.54744 -11.913738,-19.62427 -6.08882,-9.85484 -0.0375,-2.09677 -22.98143,-4.28028 -3.48146,-5.96601 -11.17789,-3.39063 z"
             id="path122"
             inkscape:connector-curvature="0"
             sodipodi:nodetypes="ccccccccccc" /><path
             d="m -104.61202,406.68893 1.31442,0.41788 4.151968,-0.10715 3.937611,1.76796 7.107998,-0.31609 -0.851827,37.02536 -15.32733,-36.70927 -0.33284,-2.07869 z"
             id="path136"
             inkscape:connector-curvature="0"
             style="clip-rule:evenodd;fill:#339966;fill-opacity:1" /><path
             style="clip-rule:evenodd;fill:#339966;fill-opacity:1"
             d="m -78.256003,393.60603 c 2.397469,-2.98977 6.108907,1.56823 8.672844,2.69859 3.04152,2.78579 8.127342,0.44707 11.009545,3.42498 -5.515219,1.30007 -2.702068,4.3865 -4.204738,7.60446 -7.957288,12.71428 -15.914577,25.42855 -23.871866,38.14283 2.887056,-17.26953 4.94299,-34.7113 8.394215,-51.87086 z"
             id="path150"
             inkscape:connector-curvature="0" /><path
             style="clip-rule:evenodd;fill:#339966;fill-opacity:1"
             d="m -84.822439,446.5698 c 10.368255,-12.25885 20.451074,-24.83031 30.997714,-36.8938 2.977661,-2.81163 6.778224,1.33021 10.151131,1.85839 2.549997,1.22589 7.653799,2.78831 8.319491,-0.01 4.160672,-0.12396 6.391063,-4.77392 9.691663,-6.91452 -1.289958,-3.69876 0.780934,-6.34084 4.644295,-5.75981 5.300339,-0.34019 9.346683,3.9266 14.6457978,4.05394 0.5598225,-2.25059 4.703797,-2.65015 7.8346147,-2.87321 0.2296598,0.62094 -5.8818172,3.2489 -8.0577398,4.63123 -26.0756557,13.96914 -52.1513107,27.93827 -78.2269667,41.90741 z"
             id="path164"
             inkscape:connector-curvature="0" /><path
             style="fill:#339966;fill-opacity:1"
             d="m -84.077792,448.81994 c 45.350172,0.18394 90.7003447,0.36788 136.050517,0.55182 -0.201343,-2.30538 -1.142023,-6.10534 1.493566,-2.67585 1.322711,1.28899 3.944929,4.33716 4.771072,1.62926 1.464621,1.57132 4.104084,0.96089 6.284725,1.07958 3.398747,0.0229 6.797493,0.0459 10.19624,0.0688 1.875187,-1.50211 -0.339908,-4.29426 -0.247108,-6.35852 -1.456091,-3.7578 0.895508,-7.38215 1.581131,-11.06489 0.901642,-3.84144 1.730132,-7.70119 2.60358,-11.54969 2.624078,-2.08578 5.977236,-3.04771 9.296816,-3.11269 2.702938,-1.76366 -3.030229,-3.81594 0.04234,-5.13593 1.544667,-2.1471 4.223422,0.13764 5.517868,-2.55788 2.528477,-3.04474 -3.009109,-4.65816 -3.035037,-6.88097 2.90405,-1.29658 2.318155,-4.92164 3.274909,-7.54669 0.239251,-1.7871 -3.243362,-3.75663 -4.969272,-2.54944 -2.396941,1.50485 -4.298626,0.54251 -5.995409,-1.44057 -1.633306,-2.51893 -3.892876,-1.56054 -6.16658,-0.52368 -53.566453,19.35578 -107.132907,38.71156 -160.69936,58.06734 z"
             id="path178"
             inkscape:connector-curvature="0" /><path
             style="fill:#339966;fill-opacity:1"
             d="m -33.424831,479.48599 c 0.706602,-3.83606 -0.658507,-6.64723 -1.094401,-10.07201 -2.044035,-2.34555 -7.897711,-4.18918 -4.67983,-7.81712 2.220156,-4.98381 3.896989,-1.85737 5.012665,1.89714 4.569822,-0.0878 7.13698,4.7604 10.778382,6.96089 3.513326,2.90679 7.026652,5.81358 10.539978,8.72037 -0.732309,2.8254 -2.900039,8.15366 -0.473351,8.80564 3.7313842,-4.24131 1.439316,5.08765 5.2526573,5.02776 4.3258645,2.14013 8.2000491,6.11494 13.3794679,4.78802 4.3261408,-0.57722 9.2455008,0.51797 13.1824238,-1.15654 2.911675,-4.11934 5.564741,-0.83595 9.468959,-1.6268 3.534206,-0.39327 5.649865,-3.98956 9.825391,-3.19126 5.609269,-0.78982 10.652678,-3.58151 15.846827,-5.68749 1.114987,-3.60441 -1.268783,-6.9982 -0.855211,-10.37171 3.27023,-4.90156 -2.270808,-4.28487 -5.790707,-4.93397 -43.817463,-6.75772 -87.634927,-13.51544 -131.45239,-20.27316 17.019713,9.64341 34.039426,19.28683 51.059139,28.93024 z"
             id="path192"
             inkscape:connector-curvature="0" /><path
             style="fill:#339966;fill-opacity:1"
             d="m -60.982435,494.02612 c 0.563336,0.51081 0.909238,1.50277 1.820827,1.24293 0.794664,-0.16116 1.431247,0.1841 2.018086,0.68873 0.659834,0.29921 1.2103,1.2753 1.994084,0.80739 1.227943,-0.35941 2.455887,-0.71883 3.68383,-1.07824 0.121333,-1.58239 0.05862,-3.23241 0.293976,-4.7729 1.977994,-2.56285 3.955989,-5.12569 5.933983,-7.68853 -13.533407,-10.39703 -27.066815,-20.79406 -40.600222,-31.19109 8.285145,13.99724 16.570291,27.99447 24.855436,41.99171 z"
             id="path206"
             inkscape:connector-curvature="0" /><path
             style="fill:#339966;fill-opacity:1"
             d="m -88.534396,543.87185 c 3.753324,-0.20894 7.506647,-0.41788 11.259971,-0.62682 1.878603,2.56958 6.444147,-1.64584 8.759697,2.80533 4.040487,1.25656 4.728938,4.19656 3.707513,7.9953 4.447614,-2.3932 5.597358,4.15786 7.930534,2.208 3.351453,-0.42377 6.902428,-0.32 10.330254,-0.54184 -13.683841,-34.36627 -27.367681,-68.73253 -41.051522,-103.0988 -0.312149,30.41961 -0.624298,60.83922 -0.936447,91.25883 z"
             id="path220"
             inkscape:connector-curvature="0" /><path
             style="fill:#339966;fill-opacity:1"
             d="m -141.24079,536.39285 c 3.07044,2.15628 4.91396,7.34099 9.28264,6.29281 3.7308,-1.688 6.9123,3.04379 9.20276,3.03173 0.58675,-5.46709 5.1109,-0.13858 7.97763,0.64559 4.59496,-2.12682 2.70982,6.1494 7.04677,4.29034 2.85645,2.2992 1.70499,-5.48555 2.85789,-7.69202 5.171689,-30.24468 10.343381,-60.48935 15.515072,-90.73403 -17.294252,28.05519 -34.588512,56.11039 -51.882762,84.16558 z"
             id="path234"
             inkscape:connector-curvature="0" /><path
             style="fill:#339966;fill-opacity:1"
             d="m -189.57519,504.82139 c 3.48678,2.24178 5.89506,2.06107 8.61771,-0.1018 5.70148,-1.21124 11.57238,-0.55842 17.40547,-0.41252 4.33149,4.32402 8.41823,9.25736 10.8256,14.81248 -1.08607,6.52731 1.76765,2.39978 4.21108,-0.61815 19.20011,-22.41282 38.40021,-44.82564 57.600316,-67.23846 -32.886726,17.85282 -65.773446,35.70563 -98.660176,53.55845 z"
             id="path248"
             inkscape:connector-curvature="0" /><path
             style="fill:#339966;fill-opacity:1"
             d="m -91.608741,449.78474 -84.156359,0.0897 c -0.0182,0.0152 -0.14095,0.11819 -0.14095,0.11819 l -2.51588,3.32197 -3.05866,5.40087 0.21441,21.39702 0.099,2.1444 89.558479,-32.47216 z"
             id="path262"
             inkscape:connector-curvature="0" /><path
             style="fill:#339966;fill-opacity:1"
             d="m -156.87644,412.33461 c -0.26373,1.71195 -1.66965,10.65274 -2.9582,14.60073 -1.4216,4.36632 -1.74223,2.4961 -1.74223,2.4961 0,0 -3.04556,5.13483 -3.92826,7.29467 l 73.947369,11.43538 -65.318679,-35.82688 z"
             id="path276"
             inkscape:connector-curvature="0" /></g></g><g
         id="g5238"><g
           transform="matrix(1.1457286,0,0,1.1457286,123.0755,-297.6399)"
           style="font-style:normal;font-weight:normal;font-size:18.75px;line-height:0%;font-family:Sans;text-align:end;letter-spacing:0px;word-spacing:0px;text-anchor:end;fill:#7030a0;fill-opacity:1;stroke:none;stroke-width:1px;stroke-linecap:butt;stroke-linejoin:miter;stroke-opacity:1"
           id="flowRoot5115"><path
             d="m -203.636,650.2793 -14.75,0 0,7.875 13.4375,0 0,10.375 -13.4375,0 0,18.5 -12.25,0 0,-47.125 27,0 0,10.375 z"
             style="font-style:normal;font-variant:normal;font-weight:bold;font-stretch:normal;font-size:62.5px;font-family:Futura;-inkscape-font-specification:'Futura Bold';letter-spacing:0.87280703px;fill:#7030a0;fill-opacity:1"
             id="path5253"
             inkscape:connector-curvature="0" /><path
             d="m -161.64601,655.6543 q -4.25,-5.1875 -10.5,-5.1875 -2.75,0 -5.125,1 -2.3125,1 -4,2.75 -1.6875,1.6875 -2.6875,4.0625 -0.9375,2.375 -0.9375,5.125 0,2.8125 0.9375,5.1875 1,2.375 2.6875,4.125 1.75,1.75 4.0625,2.75 2.3125,1 5,1 5.875,0 10.5625,-5 l 0,14.5 -1.25,0.4375 q -2.8125,1 -5.25,1.4375 -2.4375,0.5 -4.8125,0.5 -4.875,0 -9.375,-1.8125 -4.4375,-1.875 -7.875,-5.1875 -3.375,-3.375 -5.4375,-7.9375 -2.0625,-4.625 -2.0625,-10.0625 0,-5.4375 2,-9.9375 2.0625,-4.5625 5.4375,-7.8125 3.4375,-3.3125 7.9375,-5.125 4.5,-1.875 9.4375,-1.875 2.8125,0 5.5,0.625 2.75,0.5625 5.75,1.8125 l 0,14.625 z"
             style="font-style:normal;font-variant:normal;font-weight:bold;font-stretch:normal;font-size:62.5px;font-family:Futura;-inkscape-font-specification:'Futura Bold';letter-spacing:0.87280703px;fill:#7030a0;fill-opacity:1"
             id="path5255"
             inkscape:connector-curvature="0" /><path
             d="m -144.58765,639.9043 11.375,28.6875 11.4375,-28.6875 13.3125,0 -19.875,47.125 -9.75,0 -19.8125,-47.125 13.3125,0 z"
             style="font-style:normal;font-variant:normal;font-weight:bold;font-stretch:normal;font-size:62.5px;font-family:Futura;-inkscape-font-specification:'Futura Bold';letter-spacing:0.87280703px;fill:#7030a0;fill-opacity:1"
             id="path5257"
             inkscape:connector-curvature="0" /><path
             d="m -78.485349,651.9668 q -2,-1.625 -4,-2.375 -2,-0.8125 -3.875,-0.8125 -2.375,0 -3.875,1.125 -1.5,1.125 -1.5,2.9375 0,1.25 0.75,2.0625 0.75,0.8125 1.9375,1.4375 1.25,0.5625 2.75,1 1.5625,0.4375 3.0625,0.9375 6,2 8.75,5.375 2.8125,3.3125 2.8125,8.6875 0,3.625 -1.25,6.5625 -1.1875,2.9375 -3.5625,5.0625 -2.3125,2.0625 -5.75,3.1875 -3.375,1.1875 -7.6875,1.1875 -8.9375,0 -16.562501,-5.3125 l 5.25,-9.875 q 2.750001,2.4375 5.437501,3.625 2.6875,1.1875 5.3125,1.1875 3,0 4.4375,-1.375 1.5,-1.375 1.5,-3.125 0,-1.0625 -0.375,-1.8125 -0.375,-0.8125 -1.25,-1.4375 -0.875,-0.6875 -2.3125,-1.25 -1.375,-0.5625 -3.375,-1.25 -2.375,-0.75 -4.6875,-1.625 -2.25,-0.9375 -4.062501,-2.4375 -1.75,-1.5 -2.875,-3.75 -1.0625,-2.3125 -1.0625,-5.8125 0,-3.5 1.125,-6.3125 1.1875,-2.875 3.25,-4.875 2.125001,-2.0625 5.125001,-3.1875 3.0625,-1.125 6.8125,-1.125 3.5,0 7.3125,1 3.8125,0.9375 7.3125,2.8125 l -4.875,9.5625 z"
             style="font-style:normal;font-variant:normal;font-weight:bold;font-stretch:normal;font-size:62.5px;font-family:Futura;-inkscape-font-specification:'Futura Bold';letter-spacing:0.87280703px;fill:#7030a0;fill-opacity:1"
             id="path5259"
             inkscape:connector-curvature="0" /></g><g
           transform="matrix(0.60164512,0,0,0.60164512,116.49813,-39.2581)"
           style="font-style:normal;font-weight:normal;font-size:18.75px;line-height:0%;font-family:Sans;text-align:end;letter-spacing:0px;word-spacing:0px;text-anchor:end;fill:#ff0000;fill-opacity:1;stroke:none;stroke-width:1px;stroke-linecap:butt;stroke-linejoin:miter;stroke-opacity:1"
           id="flowRoot5135"><path
             d="m -455.36426,650.2793 -14.75,0 0,7.875 13.4375,0 0,10.375 -13.4375,0 0,18.5 -12.25,0 0,-47.125 27,0 0,10.375 z"
             style="font-style:normal;font-variant:normal;font-weight:bold;font-stretch:normal;font-size:62.5px;font-family:Futura;-inkscape-font-specification:'Futura Bold';letter-spacing:-1.66210938px;fill:#ff0000;fill-opacity:1"
             id="path5262"
             inkscape:connector-curvature="0" /><path
             d="m -440.70996,670.8418 q 0,1.625 0.5625,3 0.625,1.3125 1.5625,2.3125 1,1 2.3125,1.5625 1.375,0.5625 2.875,0.5625 1.5,0 2.8125,-0.5625 1.375,-0.5625 2.3125,-1.5625 1,-1 1.5625,-2.3125 0.625,-1.375 0.625,-2.9375 0,-1.5 -0.625,-2.8125 -0.5625,-1.375 -1.5625,-2.375 -0.9375,-1 -2.3125,-1.5625 -1.3125,-0.5625 -2.8125,-0.5625 -1.5,0 -2.875,0.5625 -1.3125,0.5625 -2.3125,1.5625 -0.9375,1 -1.5625,2.3125 -0.5625,1.3125 -0.5625,2.8125 z m -11.9375,-0.125 q 0,-3.5625 1.4375,-6.625 1.4375,-3.125 4,-5.375 2.5625,-2.3125 6.0625,-3.625 3.5625,-1.3125 7.75,-1.3125 4.125,0 7.625,1.3125 3.5625,1.25 6.125,3.5625 2.625,2.25 4.0625,5.4375 1.4375,3.125 1.4375,6.9375 0,3.8125 -1.5,7 -1.4375,3.125 -4,5.4375 -2.5625,2.25 -6.1875,3.5 -3.5625,1.25 -7.75,1.25 -4.125,0 -7.625,-1.25 -3.5,-1.25 -6.0625,-3.5625 -2.5,-2.3125 -3.9375,-5.5 -1.4375,-3.25 -1.4375,-7.1875 z"
             style="font-style:normal;font-variant:normal;font-weight:bold;font-stretch:normal;font-size:62.5px;font-family:Futura;-inkscape-font-specification:'Futura Bold';letter-spacing:-1.66210938px;fill:#ff0000;fill-opacity:1"
             id="path5264"
             inkscape:connector-curvature="0" /><path
             d="m -398.6709,670.8418 q 0,1.625 0.5625,3 0.625,1.3125 1.5625,2.3125 1,1 2.3125,1.5625 1.375,0.5625 2.875,0.5625 1.5,0 2.8125,-0.5625 1.375,-0.5625 2.3125,-1.5625 1,-1 1.5625,-2.3125 0.625,-1.375 0.625,-2.9375 0,-1.5 -0.625,-2.8125 -0.5625,-1.375 -1.5625,-2.375 -0.9375,-1 -2.3125,-1.5625 -1.3125,-0.5625 -2.8125,-0.5625 -1.5,0 -2.875,0.5625 -1.3125,0.5625 -2.3125,1.5625 -0.9375,1 -1.5625,2.3125 -0.5625,1.3125 -0.5625,2.8125 z m -11.9375,-0.125 q 0,-3.5625 1.4375,-6.625 1.4375,-3.125 4,-5.375 2.5625,-2.3125 6.0625,-3.625 3.5625,-1.3125 7.75,-1.3125 4.125,0 7.625,1.3125 3.5625,1.25 6.125,3.5625 2.625,2.25 4.0625,5.4375 1.4375,3.125 1.4375,6.9375 0,3.8125 -1.5,7 -1.4375,3.125 -4,5.4375 -2.5625,2.25 -6.1875,3.5 -3.5625,1.25 -7.75,1.25 -4.125,0 -7.625,-1.25 -3.5,-1.25 -6.0625,-3.5625 -2.5,-2.3125 -3.9375,-5.5 -1.4375,-3.25 -1.4375,-7.1875 z"
             style="font-style:normal;font-variant:normal;font-weight:bold;font-stretch:normal;font-size:62.5px;font-family:Futura;-inkscape-font-specification:'Futura Bold';letter-spacing:-1.66210938px;fill:#ff0000;fill-opacity:1"
             id="path5266"
             inkscape:connector-curvature="0" /><path
             d="m -354.4502,664.4043 0,22.625 -11.3125,0 0,-22.625 -3.75,0 0,-9.4375 3.75,0 0,-9.625 11.3125,0 0,9.625 6.4375,0 0,9.4375 -6.4375,0 z"
             style="font-style:normal;font-variant:normal;font-weight:bold;font-stretch:normal;font-size:62.5px;font-family:Futura;-inkscape-font-specification:'Futura Bold';letter-spacing:-1.66210938px;fill:#ff0000;fill-opacity:1"
             id="path5268"
             inkscape:connector-curvature="0" /><path
             d="m -319.85937,671.0918 q 0,-1.5 -0.5625,-2.8125 -0.5625,-1.375 -1.5625,-2.375 -1,-1 -2.3125,-1.5625 -1.3125,-0.625 -2.875,-0.625 -1.5,0 -2.8125,0.5625 -1.3125,0.5625 -2.3125,1.5625 -0.9375,1 -1.5625,2.375 -0.5625,1.3125 -0.5625,2.8125 0,1.5 0.5625,2.8125 0.5625,1.3125 1.5625,2.3125 1,0.9375 2.3125,1.5625 1.375,0.5625 2.875,0.5625 1.5,0 2.8125,-0.5625 1.3125,-0.5625 2.25,-1.5625 1,-1 1.5625,-2.3125 0.625,-1.3125 0.625,-2.75 z m -14.25,-35.9375 0,23 q 4,-4.1875 10,-4.1875 3.5625,0 6.5,1.375 3,1.3125 5.0625,3.625 2.125,2.25 3.3125,5.375 1.1875,3.0625 1.1875,6.5625 0,3.5625 -1.25,6.6875 -1.1875,3.125 -3.375,5.4375 -2.1875,2.3125 -5.1875,3.6875 -2.9375,1.3125 -6.375,1.3125 -6.25,0 -9.875,-4.5625 l 0,3.5625 -11.3125,0 0,-51.875 11.3125,0 z"
             style="font-style:normal;font-variant:normal;font-weight:bold;font-stretch:normal;font-size:62.5px;font-family:Futura;-inkscape-font-specification:'Futura Bold';letter-spacing:-1.66210938px;fill:#ff0000;fill-opacity:1"
             id="path5270"
             inkscape:connector-curvature="0" /><path
             d="m -292.76074,670.9043 q 0,1.5625 0.5625,2.9375 0.5625,1.3125 1.5,2.3125 1,1 2.3125,1.5625 1.375,0.5625 2.9375,0.5625 1.5,0 2.8125,-0.5625 1.375,-0.5625 2.3125,-1.5625 1,-1 1.5625,-2.3125 0.625,-1.3125 0.625,-2.8125 0,-1.5 -0.625,-2.8125 -0.5625,-1.375 -1.5625,-2.375 -0.9375,-1 -2.3125,-1.5625 -1.3125,-0.5625 -2.8125,-0.5625 -1.5625,0 -2.9375,0.5625 -1.3125,0.5625 -2.3125,1.5625 -0.9375,1 -1.5,2.3125 -0.5625,1.25 -0.5625,2.75 z m 14.25,-15.9375 11.375,0 0,32.0625 -11.375,0 0,-3.5625 q -3.625,4.5625 -9.8125,4.5625 -3.5,0 -6.4375,-1.25 -2.9375,-1.3125 -5.125,-3.625 -2.1875,-2.3125 -3.4375,-5.4375 -1.1875,-3.125 -1.1875,-6.8125 0,-3.4375 1.1875,-6.5 1.1875,-3.125 3.3125,-5.4375 2.125,-2.3125 5.0625,-3.625 2.9375,-1.375 6.5,-1.375 6,0 9.9375,4.1875 l 0,-3.1875 z"
             style="font-style:normal;font-variant:normal;font-weight:bold;font-stretch:normal;font-size:62.5px;font-family:Futura;-inkscape-font-specification:'Futura Bold';letter-spacing:-1.66210938px;fill:#ff0000;fill-opacity:1"
             id="path5272"
             inkscape:connector-curvature="0" /><path
             d="m -249.90918,635.1543 0,51.875 -11.3125,0 0,-51.875 11.3125,0 z"
             style="font-style:normal;font-variant:normal;font-weight:bold;font-stretch:normal;font-size:62.5px;font-family:Futura;-inkscape-font-specification:'Futura Bold';letter-spacing:-1.66210938px;fill:#ff0000;fill-opacity:1"
             id="path5274"
             inkscape:connector-curvature="0" /><path
             d="m -232.40625,635.1543 0,51.875 -11.3125,0 0,-51.875 11.3125,0 z"
             style="font-style:normal;font-variant:normal;font-weight:bold;font-stretch:normal;font-size:62.5px;font-family:Futura;-inkscape-font-specification:'Futura Bold';letter-spacing:-1.66210938px;fill:#ff0000;fill-opacity:1"
             id="path5276"
             inkscape:connector-curvature="0" /><path
             d="m -171.6377,655.6543 q -4.25,-5.1875 -10.5,-5.1875 -2.75,0 -5.125,1 -2.3125,1 -4,2.75 -1.6875,1.6875 -2.6875,4.0625 -0.9375,2.375 -0.9375,5.125 0,2.8125 0.9375,5.1875 1,2.375 2.6875,4.125 1.75,1.75 4.0625,2.75 2.3125,1 5,1 5.875,0 10.5625,-5 l 0,14.5 -1.25,0.4375 q -2.8125,1 -5.25,1.4375 -2.4375,0.5 -4.8125,0.5 -4.875,0 -9.375,-1.8125 -4.4375,-1.875 -7.875,-5.1875 -3.375,-3.375 -5.4375,-7.9375 -2.0625,-4.625 -2.0625,-10.0625 0,-5.4375 2,-9.9375 2.0625,-4.5625 5.4375,-7.8125 3.4375,-3.3125 7.9375,-5.125 4.5,-1.875 9.4375,-1.875 2.8125,0 5.5,0.625 2.75,0.5625 5.75,1.8125 l 0,14.625 z"
             style="font-style:normal;font-variant:normal;font-weight:bold;font-stretch:normal;font-size:62.5px;font-family:Futura;-inkscape-font-specification:'Futura Bold';letter-spacing:-1.66210938px;fill:#ff0000;fill-opacity:1"
             id="path5278"
             inkscape:connector-curvature="0" /><path
             d="m -155.23926,635.1543 0,51.875 -11.3125,0 0,-51.875 11.3125,0 z"
             style="font-style:normal;font-variant:normal;font-weight:bold;font-stretch:normal;font-size:62.5px;font-family:Futura;-inkscape-font-specification:'Futura Bold';letter-spacing:-1.66210938px;fill:#ff0000;fill-opacity:1"
             id="path5280"
             inkscape:connector-curvature="0" /><path
             d="m -137.73633,654.9668 0,18.0625 q 0,5.9375 5.75,5.9375 5.75,0 5.75,-5.9375 l 0,-18.0625 11.3125,0 0,20.25 q 0,6.5 -4.3125,9.75 -4.25,3.25 -12.75,3.25 -8.5,0 -12.8125,-3.25 -4.25,-3.25 -4.25,-9.75 l 0,-20.25 11.3125,0 z"
             style="font-style:normal;font-variant:normal;font-weight:bold;font-stretch:normal;font-size:62.5px;font-family:Futura;-inkscape-font-specification:'Futura Bold';letter-spacing:-1.66210938px;fill:#ff0000;fill-opacity:1"
             id="path5282"
             inkscape:connector-curvature="0" /><path
             d="m -83.27832,671.0918 q 0,-1.5 -0.5625,-2.8125 -0.5625,-1.375 -1.5625,-2.375 -1,-1 -2.3125,-1.5625 -1.3125,-0.625 -2.875,-0.625 -1.5,0 -2.8125,0.5625 -1.3125,0.5625 -2.3125,1.5625 -0.9375,1 -1.5625,2.375 -0.5625,1.3125 -0.5625,2.8125 0,1.5 0.5625,2.8125 0.5625,1.3125 1.5625,2.3125 1,0.9375 2.3125,1.5625 1.375,0.5625 2.875,0.5625 1.5,0 2.8125,-0.5625 1.3125,-0.5625 2.25,-1.5625 1,-1 1.5625,-2.3125 0.625,-1.3125 0.625,-2.75 z m -14.25,-35.9375 0,23 q 4,-4.1875 10,-4.1875 3.5625,0 6.5,1.375 3,1.3125 5.0625,3.625 2.125,2.25 3.3125,5.375 1.1875,3.0625 1.1875,6.5625 0,3.5625 -1.25,6.6875 -1.1875,3.125 -3.375,5.4375 -2.1875,2.3125 -5.1875,3.6875 -2.9375,1.3125 -6.375,1.3125 -6.25,0 -9.875,-4.5625 l 0,3.5625 -11.3125,0 0,-51.875 11.3125,0 z"
             style="font-style:normal;font-variant:normal;font-weight:bold;font-stretch:normal;font-size:62.5px;font-family:Futura;-inkscape-font-specification:'Futura Bold';letter-spacing:-1.66210938px;fill:#ff0000;fill-opacity:1"
             id="path5284"
             inkscape:connector-curvature="0" /></g><g
           transform="matrix(0.58287796,0,0,0.58287796,112.74163,223.86409)"
           style="font-style:normal;font-weight:normal;font-size:18.75px;line-height:0%;font-family:Sans;text-align:end;letter-spacing:0px;word-spacing:0px;text-anchor:end;fill:#009242;fill-opacity:1;stroke:none;stroke-width:1px;stroke-linecap:butt;stroke-linejoin:miter;stroke-opacity:1"
           id="flowRoot5143"><path
             d="m -474.03711,639.9043 11.375,28.6875 11.4375,-28.6875 13.3125,0 -19.875,47.125 -9.75,0 -19.8125,-47.125 13.3125,0 z"
             style="font-style:normal;font-variant:normal;font-weight:bold;font-stretch:normal;font-size:62.5px;font-family:Futura;-inkscape-font-specification:'Futura Bold';fill:#009242;fill-opacity:1"
             id="path5287"
             inkscape:connector-curvature="0" /><path
             d="m -414.38281,666.3418 q -0.5625,-2.375 -2.3125,-3.8125 -1.75,-1.4375 -4.25,-1.4375 -2.625,0 -4.3125,1.375 -1.625,1.375 -2.0625,3.875 l 12.9375,0 z m -13.25,6.5625 q 0,7.3125 6.875,7.3125 3.6875,0 5.5625,-3 l 10.9375,0 q -3.3125,11 -16.5625,11 -4.0625,0 -7.4375,-1.1875 -3.375,-1.25 -5.8125,-3.5 -2.375,-2.25 -3.6875,-5.375 -1.3125,-3.125 -1.3125,-7 0,-4 1.25,-7.1875 1.25,-3.25 3.5625,-5.5 2.3125,-2.25 5.5625,-3.4375 3.3125,-1.25 7.4375,-1.25 4.0625,0 7.3125,1.25 3.25,1.1875 5.5,3.5 2.25,2.3125 3.4375,5.6875 1.1875,3.3125 1.1875,7.5 l 0,1.1875 -23.8125,0 z"
             style="font-style:normal;font-variant:normal;font-weight:bold;font-stretch:normal;font-size:62.5px;font-family:Futura;-inkscape-font-specification:'Futura Bold';fill:#009242;fill-opacity:1"
             id="path5289"
             inkscape:connector-curvature="0" /><path
             d="m -387.49902,682.6543 -15.5,-27.6875 13.125,0 8.5625,16.4375 8.3125,-16.4375 13,0 -25.75,48.0625 -12.6875,0 10.9375,-20.375 z"
             style="font-style:normal;font-variant:normal;font-weight:bold;font-stretch:normal;font-size:62.5px;font-family:Futura;-inkscape-font-specification:'Futura Bold';fill:#009242;fill-opacity:1"
             id="path5291"
             inkscape:connector-curvature="0" /><path
             d="m -344.23242,635.1543 0,51.875 -11.3125,0 0,-51.875 11.3125,0 z"
             style="font-style:normal;font-variant:normal;font-weight:bold;font-stretch:normal;font-size:62.5px;font-family:Futura;-inkscape-font-specification:'Futura Bold';fill:#009242;fill-opacity:1"
             id="path5293"
             inkscape:connector-curvature="0" /><path
             d="m -312.94238,666.3418 q -0.5625,-2.375 -2.3125,-3.8125 -1.75,-1.4375 -4.25,-1.4375 -2.625,0 -4.3125,1.375 -1.625,1.375 -2.0625,3.875 l 12.9375,0 z m -13.25,6.5625 q 0,7.3125 6.875,7.3125 3.6875,0 5.5625,-3 l 10.9375,0 q -3.3125,11 -16.5625,11 -4.0625,0 -7.4375,-1.1875 -3.375,-1.25 -5.8125,-3.5 -2.375,-2.25 -3.6875,-5.375 -1.3125,-3.125 -1.3125,-7 0,-4 1.25,-7.1875 1.25,-3.25 3.5625,-5.5 2.3125,-2.25 5.5625,-3.4375 3.3125,-1.25 7.4375,-1.25 4.0625,0 7.3125,1.25 3.25,1.1875 5.5,3.5 2.25,2.3125 3.4375,5.6875 1.1875,3.3125 1.1875,7.5 l 0,1.1875 -23.8125,0 z"
             style="font-style:normal;font-variant:normal;font-weight:bold;font-stretch:normal;font-size:62.5px;font-family:Futura;-inkscape-font-specification:'Futura Bold';fill:#009242;fill-opacity:1"
             id="path5295"
             inkscape:connector-curvature="0" /><path
             d="m -247.79687,651.9668 q -2,-1.625 -4,-2.375 -2,-0.8125 -3.875,-0.8125 -2.375,0 -3.875,1.125 -1.5,1.125 -1.5,2.9375 0,1.25 0.75,2.0625 0.75,0.8125 1.9375,1.4375 1.25,0.5625 2.75,1 1.5625,0.4375 3.0625,0.9375 6,2 8.75,5.375 2.8125,3.3125 2.8125,8.6875 0,3.625 -1.25,6.5625 -1.1875,2.9375 -3.5625,5.0625 -2.3125,2.0625 -5.75,3.1875 -3.375,1.1875 -7.6875,1.1875 -8.9375,0 -16.5625,-5.3125 l 5.25,-9.875 q 2.75,2.4375 5.4375,3.625 2.6875,1.1875 5.3125,1.1875 3,0 4.4375,-1.375 1.5,-1.375 1.5,-3.125 0,-1.0625 -0.375,-1.8125 -0.375,-0.8125 -1.25,-1.4375 -0.875,-0.6875 -2.3125,-1.25 -1.375,-0.5625 -3.375,-1.25 -2.375,-0.75 -4.6875,-1.625 -2.25,-0.9375 -4.0625,-2.4375 -1.75,-1.5 -2.875,-3.75 -1.0625,-2.3125 -1.0625,-5.8125 0,-3.5 1.125,-6.3125 1.1875,-2.875 3.25,-4.875 2.125,-2.0625 5.125,-3.1875 3.0625,-1.125 6.8125,-1.125 3.5,0 7.3125,1 3.8125,0.9375 7.3125,2.8125 l -4.875,9.5625 z"
             style="font-style:normal;font-variant:normal;font-weight:bold;font-stretch:normal;font-size:62.5px;font-family:Futura;-inkscape-font-specification:'Futura Bold';fill:#009242;fill-opacity:1"
             id="path5297"
             inkscape:connector-curvature="0" /><path
             d="m -223.8291,670.9043 q 0,1.5625 0.5625,2.9375 0.5625,1.3125 1.5,2.3125 1,1 2.3125,1.5625 1.375,0.5625 2.9375,0.5625 1.5,0 2.8125,-0.5625 1.375,-0.5625 2.3125,-1.5625 1,-1 1.5625,-2.3125 0.625,-1.3125 0.625,-2.8125 0,-1.5 -0.625,-2.8125 -0.5625,-1.375 -1.5625,-2.375 -0.9375,-1 -2.3125,-1.5625 -1.3125,-0.5625 -2.8125,-0.5625 -1.5625,0 -2.9375,0.5625 -1.3125,0.5625 -2.3125,1.5625 -0.9375,1 -1.5,2.3125 -0.5625,1.25 -0.5625,2.75 z m 14.25,-15.9375 11.375,0 0,32.0625 -11.375,0 0,-3.5625 q -3.625,4.5625 -9.8125,4.5625 -3.5,0 -6.4375,-1.25 -2.9375,-1.3125 -5.125,-3.625 -2.1875,-2.3125 -3.4375,-5.4375 -1.1875,-3.125 -1.1875,-6.8125 0,-3.4375 1.1875,-6.5 1.1875,-3.125 3.3125,-5.4375 2.125,-2.3125 5.0625,-3.625 2.9375,-1.375 6.5,-1.375 6,0 9.9375,4.1875 l 0,-3.1875 z"
             style="font-style:normal;font-variant:normal;font-weight:bold;font-stretch:normal;font-size:62.5px;font-family:Futura;-inkscape-font-specification:'Futura Bold';fill:#009242;fill-opacity:1"
             id="path5299"
             inkscape:connector-curvature="0" /><path
             d="m -179.94043,670.8418 q 0,1.625 0.5625,3 0.625,1.3125 1.5625,2.3125 1,1 2.3125,1.5625 1.375,0.5625 2.875,0.5625 1.5,0 2.8125,-0.5625 1.375,-0.5625 2.3125,-1.5625 1,-1 1.5625,-2.3125 0.625,-1.375 0.625,-2.9375 0,-1.5 -0.625,-2.8125 -0.5625,-1.375 -1.5625,-2.375 -0.9375,-1 -2.3125,-1.5625 -1.3125,-0.5625 -2.8125,-0.5625 -1.5,0 -2.875,0.5625 -1.3125,0.5625 -2.3125,1.5625 -0.9375,1 -1.5625,2.3125 -0.5625,1.3125 -0.5625,2.8125 z m -11.9375,-0.125 q 0,-3.5625 1.4375,-6.625 1.4375,-3.125 4,-5.375 2.5625,-2.3125 6.0625,-3.625 3.5625,-1.3125 7.75,-1.3125 4.125,0 7.625,1.3125 3.5625,1.25 6.125,3.5625 2.625,2.25 4.0625,5.4375 1.4375,3.125 1.4375,6.9375 0,3.8125 -1.5,7 -1.4375,3.125 -4,5.4375 -2.5625,2.25 -6.1875,3.5 -3.5625,1.25 -7.75,1.25 -4.125,0 -7.625,-1.25 -3.5,-1.25 -6.0625,-3.5625 -2.5,-2.3125 -3.9375,-5.5 -1.4375,-3.25 -1.4375,-7.1875 z m 5.3125,-25.9375 13.8125,-10.375 14,10.375 -5,5.5 -9,-7 -9,7 -4.8125,-5.5 z"
             style="font-style:normal;font-variant:normal;font-weight:bold;font-stretch:normal;font-size:62.5px;font-family:Futura;-inkscape-font-specification:'Futura Bold';fill:#009242;fill-opacity:1"
             id="path5301"
             inkscape:connector-curvature="0" /><path
             d="m -146.92676,654.9668 11.3125,0 0,4.0625 q 2.3125,-2.8125 4.6875,-3.75 2.375,-1 5.5625,-1 3.375,0 5.75,1.125 2.4375,1.0625 4.125,3.0625 1.375,1.625 1.875,3.625 0.5,2 0.5,4.5625 l 0,20.375 -11.3125,0 0,-16.1875 q 0,-2.375 -0.375,-3.8125 -0.3125,-1.5 -1.1875,-2.375 -0.75,-0.75 -1.6875,-1.0625 -0.9375,-0.3125 -2,-0.3125 -2.875,0 -4.4375,1.75 -1.5,1.6875 -1.5,4.875 l 0,17.125 -11.3125,0 0,-32.0625 z"
             style="font-style:normal;font-variant:normal;font-weight:bold;font-stretch:normal;font-size:62.5px;font-family:Futura;-inkscape-font-specification:'Futura Bold';fill:#009242;fill-opacity:1"
             id="path5303"
             inkscape:connector-curvature="0" /><path
             d="m -81.985352,666.3418 q -0.5625,-2.375 -2.3125,-3.8125 -1.75,-1.4375 -4.25,-1.4375 -2.625,0 -4.3125,1.375 -1.625,1.375 -2.0625,3.875 l 12.9375,0 z m -13.25,6.5625 q 0,7.3125 6.875,7.3125 3.6875,0 5.5625,-3 l 10.9375,0 q -3.3125,11 -16.5625,11 -4.0625,0 -7.4375,-1.1875 -3.375,-1.25 -5.812498,-3.5 -2.375,-2.25 -3.6875,-5.375 -1.3125,-3.125 -1.3125,-7 0,-4 1.25,-7.1875 1.25,-3.25 3.5625,-5.5 2.312498,-2.25 5.562498,-3.4375 3.3125,-1.25 7.4375,-1.25 4.0625,0 7.3125,1.25 3.25,1.1875 5.5,3.5 2.25,2.3125 3.4375,5.6875 1.1875,3.3125 1.1875,7.5 l 0,1.1875 -23.8125,0 z"
             style="font-style:normal;font-variant:normal;font-weight:bold;font-stretch:normal;font-size:62.5px;font-family:Futura;-inkscape-font-specification:'Futura Bold';fill:#009242;fill-opacity:1"
             id="path5305"
             inkscape:connector-curvature="0" /></g></g></g></g></svg>