<?xml version="1.0" encoding="utf-8"?>
<!-- Generator: Adobe Illustrator 22.0.0, SVG Export Plug-In . SVG Version: 6.00 Build 0)  -->
<svg version="1.1" id="Layer_1" xmlns="http://www.w3.org/2000/svg" xmlns:xlink="http://www.w3.org/1999/xlink" x="0px" y="0px"
	 viewBox="0 0 584.8 659.9" style="enable-background:new 0 0 584.8 659.9;" xml:space="preserve">
<style type="text/css">
	.st0{fill:#FFFFFF;}
	.st1{fill:#A39161;}
</style>
<title>logo/icon_club_Collingwood</title>
<g>
	<path class="st0" d="M580.6,347.4c-2.7-3-6.4-4.9-10.4-5.5c3.4-6.9,6.3-15.2,7.9-25.4c1.1-6.3-1.7-12.7-6.9-16.5
		c-0.9-0.7-1.8-1.1-2.8-1.5c1.3-4.9,2.1-10,2.4-15.6c0.4-6.5-2.9-12.5-8.5-15.8c-0.1-0.1-0.4-0.1-0.5-0.3c1-4.7,1.5-9.6,1.4-15
		c0-6.5-3.7-12.4-9.5-15.1c-1.4-0.7-2.9-1.1-4.4-1.4c-0.1-2.6-0.4-5.3-1-8.1c-1.1-6.3-5.6-11.5-11.8-13.4c-1-0.3-1.8-0.4-2.7-0.6
		c-0.3-4.9-1.4-10.2-3.2-15.5c-1.9-5.8-6.9-10-12.8-11.2v-8.5c-9.8-8.8-95.5-82.4-225-82.4c-130.4,0-214.5,72.7-224.9,82.4v8.4
		c-6.3,1-11.7,5.4-13.6,11.4c-1.8,5.4-2.7,10.6-3.1,15.5c-1,0.1-1.8,0.3-2.7,0.6c-6.2,1.9-10.7,7.1-11.8,13.4
		c-0.4,2.7-0.8,5.5-1,8.1c-1.5,0.3-3,0.7-4.4,1.4c-5.7,2.9-9.4,8.6-9.4,15.1c0,5.3,0.4,10.3,1.4,15c-0.1,0.1-0.4,0.1-0.5,0.3
		c-5.7,3.2-8.9,9.3-8.5,15.8c0.3,5.5,1.1,10.7,2.3,15.6c-1,0.4-1.9,1-2.7,1.5c-5.2,3.7-8,10.2-6.9,16.5c1.6,10.2,4.5,18.5,8,25.4
		c-4,0.5-7.7,2.3-10.4,5.5c-4.3,4.8-5.5,11.7-3.2,17.6c2.8,6.7,5.8,12.6,9.1,17.7c-2,1.1-3.8,2.7-5.2,4.7
		c-3.8,5.2-4.4,12.1-1.5,17.8c4.3,8.2,8.8,15,13.7,20.6c-1.3,1.1-2.6,2.5-3.7,4c-3.6,5.4-3.7,12.4-0.4,17.9
		c5.5,9.3,11.2,16.8,17.3,22.7c-1.2,1.2-2.3,2.7-3.2,4.4c-2.7,5.8-2.1,12.8,1.9,17.8c8.9,11.5,18.1,19.6,27.2,25.5
		c-2.8,2.4-4.8,5.5-5.8,9.1c-1.5,6.3,0.7,12.9,5.6,17c9.9,8.3,19.4,14,28.3,18c-3.7,3-6.2,7.4-6.5,12.4c-0.4,6.4,2.9,12.5,8.5,15.8
		c14.8,8.5,28.4,12.9,40.6,14.8c-2.9,3.6-4.2,8.1-3.7,12.8c0.8,6.5,5.1,11.8,11.3,14c15,5.2,28.3,7.4,39.9,7.4
		c9.3,0,17.7-1.4,25.1-3.6c1.4,1.9,2.9,3.3,4.5,4.3c26.3,13.6,54.3,19.9,88.4,19.9c34,0,62-6.3,88.4-19.9c1.6-0.8,3-2.2,4.4-4
		c7.1,2.1,15.2,3.3,24.4,3.3c11.7,0,25-2,39.9-7.4c6-2.2,10.4-7.5,11.3-14c0.5-4.7-0.8-9.2-3.7-12.8c12.2-1.9,25.8-6.3,40.6-14.8
		c5.6-3.2,8.9-9.4,8.5-15.8c-0.3-4.9-2.6-9.3-6.4-12.4c9.1-4,18.5-9.7,28.3-18c4.9-4.1,7.1-10.7,5.6-17c-0.8-3.6-2.9-6.7-5.8-9.1
		c9.1-5.7,18.3-14,27.2-25.5c4-5.1,4.7-11.9,1.9-17.8c-0.8-1.7-1.9-3.2-3.1-4.4c6-5.9,11.8-13.3,17.3-22.6c3.3-5.6,3-12.5-0.4-17.8
		c-1-1.5-2.3-2.9-3.7-4c4.8-5.6,9.5-12.3,13.7-20.6c2.9-5.8,2.3-12.6-1.5-17.8c-1.4-1.9-3.2-3.4-5.2-4.7c3.3-5.1,6.3-10.9,9-17.7
		c2.6-6.1,1.4-12.8-2.9-17.6L580.6,347.4z"/>
	<path class="st0" d="M194,572.9c-0.4,1.2-0.8,2.6-1.1,4C193.4,575.5,193.6,574.3,194,572.9z M194.5,570c-0.2,0.6-0.4,1.3-0.4,2.1
		C194.3,571.3,194.5,570.7,194.5,570z M194.3,618.9c-0.4-1.4-0.9-2.7-1.3-4.3C193.4,616.2,193.9,617.5,194.3,618.9L194.3,618.9z
		 M196.7,628.9c0.2,0.4,0.4,0.9,0.4,1.3C196.9,629.7,196.9,629.3,196.7,628.9L196.7,628.9z M194.1,620.3c0.2,0.9,0.6,1.8,1.1,2.6
		C194.8,622.1,194.3,621.1,194.1,620.3z M195.1,624.3c0.4,1,0.8,1.9,1.5,2.9C195.9,626.2,195.5,625.2,195.1,624.3z M392.1,571.9
		c-0.2-0.6-0.5-1.3-0.5-1.9C391.8,570.7,391.8,571.3,392.1,571.9L392.1,571.9z M393.4,576.9c-0.4-1.4-0.6-2.6-1.1-4
		C392.7,574.3,392.9,575.5,393.4,576.9z M392.2,618.9c0.4-1.4,0.8-2.7,1.3-4.3C393,616.2,392.6,617.5,392.2,618.9z M388.9,630.4
		c0.2-0.4,0.4-1.1,0.6-1.5C389.3,629.6,389.1,630,388.9,630.4z M390,627.1c0.4-1,1.1-1.9,1.5-2.9C391,625.2,390.6,626.2,390,627.1z
		 M391.4,622.9c0.4-0.8,0.6-1.6,1-2.6C392,621.1,391.5,622.1,391.4,622.9L391.4,622.9z"/>
	<g>
		<path d="M191.3,595.8c0-0.4,0.1-9.2,1.6-18.9c0.7-4.3,1.5-7.8,2.6-11C134.7,522.8,68.1,457,68.1,374.6V190.3
			c-4.5,1-8.4,4.1-9.9,8.7c-2.1,6.3-3,12.5-2.9,18.2c-1.8-0.3-3.7-0.1-5.5,0.4c-4.7,1.4-8.2,5.4-9.1,10.3c-0.7,3.8-1,7.7-1,11.2
			c-2.2-0.1-4.5,0.3-6.6,1.2c-4.4,2.2-7.3,6.7-7.3,11.5c0,6.6,0.8,12.3,2,17.3c-1.1,0.3-2.2,0.7-3.1,1.2c-4.3,2.5-6.9,7.2-6.5,12.1
			c0.4,7,1.6,13.2,3.3,18.5c-1.9,0.3-3.7,1.1-5.3,2.2c-4,2.9-6,7.8-5.2,12.7c2.2,13.3,6.4,23.3,11.7,31c-0.6-0.3-1.2-0.4-1.9-0.7
			c-4.8-1.4-9.9,0.1-13.2,3.8c-3.3,3.7-4.2,8.9-2.5,13.5c3.4,8.5,7.4,15.4,11.7,21.1c-3.3,0.6-6.3,2.3-8.4,5.1
			c-2.9,4-3.4,9.2-1.1,13.6c5.1,9.7,10.6,17.4,16.5,23.4c-2.7,1-5.1,2.8-6.7,5.2c-2.7,4.1-2.9,9.5-0.4,13.8
			c6.3,10.7,13,18.8,20,24.8c-2.5,1.2-4.5,3.3-5.8,5.9c-2.2,4.4-1.6,9.7,1.5,13.6c9.9,12.6,20.7,21.9,32.5,28.1
			c-0.3,0-0.4,0-0.7,0.1c-4.8,1.1-8.6,4.8-9.7,9.6s0.5,9.9,4.3,13c12,10,24.3,17,36.8,20.9c-1.9,0.3-3.7,0.7-5.5,1.5
			c-4.5,1.9-7.5,6.3-7.8,11.2c-0.3,5,2.2,9.6,6.6,12.1c19.4,11,36.4,15.1,50.8,15.4c-2.2,0.7-4.1,1.5-6,2.7
			c-4.1,2.7-6.3,7.6-5.8,12.5c0.6,4.9,4,9.1,8.7,10.7c14.4,5.1,27.3,7.1,38.4,7.1c8.7,0,16.2-1.2,23.1-3c-2.1-4.3-3.7-9.9-5-17
			C191.4,605.1,191.4,596.3,191.3,595.8L191.3,595.8z M577.6,350c-3.3-3.7-8.4-5.2-13.2-3.8c-0.7,0.1-1.3,0.4-1.9,0.7
			c5.2-7.7,9.5-17.7,11.7-31c0.8-4.8-1.2-9.8-5.2-12.6c-1.7-1.1-3.5-1.9-5.4-2.2c1.7-5.3,2.9-11.4,3.3-18.5
			c0.3-4.9-2.2-9.6-6.5-12.1c-1-0.5-2.1-0.9-3.1-1.2c1.3-5,2-10.7,2-17.3c0-4.9-2.9-9.5-7.2-11.5c-2.1-1-4.4-1.4-6.6-1.2
			c0-3.6-0.3-7.3-1-11.2c-0.8-4.8-4.2-8.8-9.1-10.3c-1.8-0.6-3.7-0.7-5.5-0.4c0.1-5.8-0.8-11.8-2.9-18.2c-1.4-4.3-4.8-7.3-9.1-8.5
			v184.1c0,82.5-66.6,148.4-127.5,191.5c1,3.2,1.9,6.9,2.6,11c1.7,9.7,1.7,18.5,1.7,18.9c0,0.4-0.1,9.2-1.6,18.9
			c-1.2,7.3-2.9,13-5.1,17.3c6.6,1.8,14,2.9,22.4,2.9c11.2,0,24-2.1,38.4-7.1c4.7-1.6,8-5.7,8.6-10.7c0.5-4.9-1.7-9.7-5.8-12.5
			c-1.9-1.2-3.8-2-6-2.7c14.5-0.3,31.6-4.4,50.8-15.4c4.3-2.5,6.9-7.1,6.6-12.1s-3.3-9.3-8-11.3c-1.9-0.8-3.7-1.3-5.6-1.5
			c11.4-3.6,23.9-10,36.9-20.9c3.9-3.2,5.5-8.2,4.3-13c-1.1-4.8-4.9-8.5-9.7-9.6c-0.1,0-0.4,0-0.5-0.1c10.7-5.6,21.8-14.4,32.5-28.1
			c3-3.8,3.5-9.2,1.5-13.6c-1.2-2.6-3.3-4.5-5.8-5.9c7-6.2,13.7-14.1,20-24.8c2.5-4.3,2.3-9.6-0.4-13.7c-1.7-2.4-4-4.2-6.7-5.2
			c5.8-6,11.4-13.6,16.5-23.5c2.2-4.4,1.8-9.7-1.1-13.6c-2.1-2.7-5.1-4.5-8.4-5.1c4.3-5.6,8.3-12.6,11.7-21.1
			C581.8,359,580.8,353.8,577.6,350L577.6,350z"/>
	</g>
	<g>
		<path class="st1" d="M151.5,544.8c5.1-2.2,9.3-2.8,12.6-2.9c-6.8-5.8-13.7-11.8-20.3-18.1c-14.5-3.3-29,2-42.4,4.8
			c-21.7,4.4-30.6,1.6-34,2.5C108.2,565.4,140.3,549.4,151.5,544.8L151.5,544.8z M118.6,511.7c5.6-1.1,10.2-0.7,13.3,0
			c-6.8-7.3-13.4-14.7-19.6-22.5c-12.1-4.3-25.3-2.5-37.2-2.6c-21.1-0.3-29-4.5-32.2-4.5C74,522.3,107.2,513.9,118.6,511.7
			L118.6,511.7z M93.8,475.6c3.6-0.1,6.4,0.1,8.9,0.7c-5.2-7.6-9.9-15.2-14.1-23.2c-10-4.4-21.4-4.4-31.6-5.9
			c-19.3-2.7-25.9-7.7-28.9-8.1C51.8,479.7,83,476.2,93.8,475.6L93.8,475.6z M78.8,435.1c0.4,0,1,0,1.4,0.1
			c-3-7.3-5.5-14.8-7.4-22.5c-8.7-3.7-18.4-4.4-27-6.2c-18.1-3.7-24-8.6-26.8-9C39.1,436.9,68.8,435.1,78.8,435.1z M67.7,397.7
			c0.8,0.1,1.5,0.1,2.2,0.3c-1-6-1.5-12.2-1.8-18.4c-8.1-6-18.5-7.5-27.7-10.3c-15.8-4.8-20.7-9.7-23.2-10.4
			C32,395.7,58.6,396.7,67.7,397.7L67.7,397.7z M61.9,359.4c2.5,0.8,4.4,1.8,6,2.7v-16.7c-6.1-8.9-16.4-12.6-25.1-17.6
			c-13.5-7.6-16.9-13-19.1-14.1C29.8,350.6,54,356.8,61.9,359.4z M61.1,325.7c3.2,1.4,5.4,3.1,6.9,4.5v-15.8
			c-4.5-8.8-13.7-13.2-21-18.4c-11.2-7.9-13.9-13.1-15.6-14.2C33.2,315,54.2,322.7,61.1,325.7L61.1,325.7z M60.8,289.4
			c5.3,2.7,7.1,6.6,7.1,6.7v-12.8c-2.5-9.3-10.7-13.7-17-18.8c-8.8-7.1-10.6-11.4-12-12.5C38.7,279.1,55.3,286.5,60.8,289.4
			L60.8,289.4z M67.3,265.6c0.3,0.2,0.5,0.4,0.7,0.6v-17.4c-1.9-2.2-4-4.1-5.9-6.2c-6.6-7.4-7.5-11.4-8.6-12.6
			C49.4,253.6,62.9,262.3,67.3,265.6L67.3,265.6z M483.8,528.5c-13.2-2.6-27.2-7.8-41.3-5.1c-6.7,6.4-13.6,12.6-20.7,18.4
			c3.2,0.3,7.1,1,11.8,2.9c11.1,4.7,43.2,20.6,84.3-13.9C514.4,530.2,505.6,532.8,483.8,528.5L483.8,528.5z M474.2,488.8
			c-6.2,7.9-12.8,15.5-19.8,22.8c3-0.6,7.2-0.7,12.2,0.2c11.4,2.2,44.5,10.6,75.7-29.8c-3.3,0-11.1,4.3-32.2,4.6
			C498.5,486.7,485.9,484.9,474.2,488.8L474.2,488.8z M497.7,452.6c-4.3,8.1-9.1,15.9-14.3,23.5c2.2-0.4,4.8-0.7,7.8-0.4
			c10.7,0.6,42,4.3,65.9-36.5c-3,0.4-9.6,5.2-29,8.1C518.4,448.6,507.4,448.7,497.7,452.6L497.7,452.6z M513.2,412.3
			c-1.9,7.8-4.5,15.5-7.4,22.9h0.5c10,0,39.8,1.8,60-37.7c-2.9,0.5-8.8,5.5-26.7,9.1C530.9,408.2,521.7,408.9,513.2,412.3
			L513.2,412.3z M568,358.7c-2.5,0.7-7.4,5.6-23.2,10.4c-8.8,2.6-18.8,4.1-26.9,9.8c-0.2,6.5-0.8,12.8-1.8,18.9
			c0.4,0,0.8-0.1,1.4-0.1C526.5,396.7,553.1,395.7,568,358.7L568,358.7z M561.4,313.8c-2.2,1.1-5.6,6.6-19.1,14.1
			c-8.2,4.7-18.1,8.2-24.3,16.3v17.3c1.4-0.8,3.2-1.7,5.2-2.3C531.2,356.8,555.3,350.6,561.4,313.8L561.4,313.8z M553.8,281.7
			c-1.8,1.2-4.4,6.4-15.6,14.3c-7,5-15.4,9.1-20.2,16.9v16.7c1.4-1.3,3.4-2.6,6.1-3.9C530.9,322.7,551.9,315,553.8,281.7
			L553.8,281.7z M524.3,289.4c5.5-2.9,22.1-10.3,22-37.3c-1.4,1.1-3.3,5.5-12,12.5c-5.8,4.7-13,8.8-16.2,16.3v13.9
			C519,293.2,520.9,291.1,524.3,289.4L524.3,289.4z M531.7,229.9c-1.1,1.1-2.1,5.2-8.6,12.6c-1.5,1.8-3.3,3.4-5.1,5.4v17.7
			C522.4,262.2,535.6,253.4,531.7,229.9L531.7,229.9z M411.5,600.2c-5.6-3.6-11.2-7.8-17.1-11.7c0.3,4.1,0.3,7,0.3,7.3
			c0,0.4-0.1,9.2-1.6,18.9c-0.3,1.8-0.5,3.3-1,4.9c13.3,3.4,30.6,3.6,52.4-4.1C441.4,613.4,431.5,612.8,411.5,600.2L411.5,600.2z
			 M454.7,566.2c-14.7-5.9-29.8-15.2-47.3-12.8c-5.6,4.4-11.4,8.5-17,12.5c0.4,1.2,0.7,2.5,1.1,3.8c2.3,1,4.9,2.2,7.5,3.8
			c10.8,7.1,41.5,29.8,90.9,1.5C486.4,573.7,476.6,575,454.7,566.2L454.7,566.2z M193,614.6c-1.6-9.7-1.6-18.5-1.6-18.9
			c0-0.3,0-3.3,0.4-7.8c-6.2,4-12.1,8.5-18.1,12.2c-20,12.5-29.8,13.2-32.9,15.2c22.2,7.8,39.7,7.5,53.3,4
			C193.6,617.9,193.3,616.3,193,614.6L193,614.6z M195.6,565.9c-5.5-3.8-11.1-8-16.6-12.2c-18-3-33.5,6.6-48.5,12.6
			c-22,8.8-31.7,7.6-35.1,9.1c49.4,28.3,80,5.5,90.9-1.5c3-2.1,5.9-3.3,8.5-4.3C194.9,568.3,195.2,567,195.6,565.9L195.6,565.9z"/>
	</g>
	<g>
		<path d="M265.6,533.8V152.7c-19.9,2.1-38,6-54.5,11.3V518c10.5,7.6,20.6,14.3,30.4,20.2C249.3,536.3,257.3,534.8,265.6,533.8
			L265.6,533.8z M429.5,468.5c26.9-31.4,40.5-64,40.5-97.2V215.7c-4.3-3.7-18.3-15.5-40.5-28L429.5,468.5L429.5,468.5z M116,215.7
			v155.5c0,33.2,13.6,65.7,40.5,97.2V187.5C134.2,200,120.1,211.9,116,215.7L116,215.7z M344.5,538.2c9.6-5.9,19.9-12.6,30.2-20.2
			V164.1c-16.5-5.2-34.7-9.3-54.5-11.3v381C328.7,534.8,336.8,536.3,344.5,538.2L344.5,538.2z"/>
		<path d="M293,100.6c-127.8,0-210.4,71.4-220.6,80.7v192.8c0,80.7,65.1,145.2,124.8,187.3c2.1-4.7,4.5-8,7.4-9.5
			c10.2-5.2,20.6-9.3,31.6-12.5c-12.5-7.9-25.8-16.9-39-27.3c-56.4-44.6-85.1-92-85.1-141.1V213.8l0.7-0.6c7.4-6.7,75.5-66,180.3-66
			c103.8,0,172.8,59.3,180.3,66l0.7,0.6v157.3c0,49.1-28.6,96.5-85,141.1c-13.3,10.4-26.7,19.6-39,27.3c10.8,3.1,21.3,7.2,31.4,12.5
			c3,1.6,5.5,4.9,7.6,9.6C448.9,519.5,514,454.8,514,374.1V181.3C504,172.8,419.8,100.6,293,100.6L293,100.6z"/>
	</g>
	<path class="st0" d="M540.9,576.8c-1.4-9.3-5.4-18.8-9.1-26.9c-0.2-0.3-0.3-0.5-0.4-0.7l-3.3-5c-4.3-6.7-9.1-14-16.9-17.7
		c-0.8-1.7-6.3-12.1-6.3-12.1c-0.1-0.3-0.3-0.4-0.4-0.6c-8.2-10.4-17.9-19.9-27.2-29.1l-3.7-3.7c-1.1-5.9-4.5-10.2-7.8-14
		c-2.1-2.5-4.1-4.8-5.5-7.4c-0.4-0.7-0.8-1.2-1.5-1.7c-6.2-3.4-13.2-13.3-16.9-21.3c-0.1-0.1-3.3-5.6-6.2-10.4
		c1.9,0.8,3.9,1.8,5.7,2.6l4.1,1.9c16.3,6.7,30.3,14.1,46.5,22.8l4.9,2.6l4.5,2.9c2.8,1.9,5.4,3.6,9.3,4.7c3.3,1,9.2,0,11.2-5.3
		c0.1-0.3,0.1-0.6,0.3-0.8c1-7.2-4-14.4-8-20.5l-1.2-1.8c0-0.1-4.8-6.9-4.8-6.9c-9.6-13.9-19.5-28.1-33.1-39.5l-7.8-8
		c-0.1-0.1-0.3-0.3-0.5-0.4c-21.5-15.5-36.9-35-53.1-55.5c-13.7-17.4-27.9-35.3-46.1-50.5l-0.2-0.3c-22.4-15.2-42-36.2-61.1-56.4
		l-23.2-24c-10.4-8.9-19.8-16.6-30.2-22.5c-0.7-0.5-7.5-7.3-7.5-7.3c-12.9-12-25.1-23.5-25.1-38.6c0-3,0.6-6.2,1.5-9.6l0.4-1.2
		c4.7-14.4,9.5-29.3,22.5-38.5c0.3-0.3,0.6-0.4,0.8-0.7c0,0,12.8-16.1,13.4-16.7c16.5-12.1,38.4-26.8,64.1-33.2
		c0.2,0,0.2-0.2,0.3-0.2l2.9-3.3c0.7-2.2-0.4-4-1-4.8l-0.1-0.2c-0.3-0.4-0.7-1-1.1-1.4c-8.8-6.3-19.4-8.1-28.6-9
		c-18.4-2.4-37-2.4-55.4-0.2c-12.8-3.8-53-13.8-83.9,2.1c-11,5.8-14.8,16.3-18,24.7c-1.6,4.4-3.1,8.5-5.3,11
		c-24.7,23.3-35,50.1-46,78.5c0,0-4.9,12.5-4.9,12.6l-2,4.4C73.7,153.5,65.5,172.1,56,184c-0.1,0.3-1,1.6-1.1,1.9
		c-1.5,3.4-5.2,13.6-5.6,18.1c-1.1,9.9,0.8,19.6,3.8,26.2c3.4,7.4,9.8,13.7,13,18.5c9.2,14.3,16.9,24,25.3,38.7
		c16.2,28.4,32.3,57.1,54.4,83.7l0.3,0.3c19.9,19.6,43.7,32.7,70.8,38.8c11,11.5,18.6,29.4,27.1,42.4c0,0,9.1,15.5,9.5,16.1
		c1.1,1.8,0.8,3.6,0.8,5.5c0,2.5,0.7,5.2-0.3,8.6c-1,3.4-1.9,7-1.9,10.8v0.3c0.1,1.4,0.1,2.7,0.1,4c0,8.4,3.2,16-0.4,25.5
		c-1.5,4-3.6,8.8-6,13.7c7.1-1.6,14.6-2.7,22.2-3.6l6.3-12.3c2.9-5.9,7.3-10.7,11-15c4.6-5.2,8.6-9.7,9.3-15.1
		c0.4-8.6,1.2-19.5,4.4-29.4c1.5-0.9,3-2,4.7-4.2c1.2-1.7,1.6-3.5,1.6-5.2c0-1.9-0.4-3.8-0.8-5.5c-0.4-1.9-0.7-2.9-0.7-3.6
		c0-0.7,0.3-0.8,0.6-1c5.2-1.7,11.4-1,15.7,1.6c2.5,2.6,4,5.8,5.6,9.2c1.5,3,3.1,6.2,5.3,9.2c1.1,4.3,1.5,8.9,1.8,13.9
		c0.5,9.2,1.4,18.8,7.4,26.5c0.5,1.8,0.8,3.6,0.8,5.3c0,5.9-2.6,11.9-4.9,17l-1.2,3c-1,2.2-2.1,4.6-3.4,7.3
		c6.4,1.1,12.6,2.5,18.8,4.2c4-6.9,7.8-14,11.1-21.5c1.9-4.8,2.3-9.9,2.7-14.8c1.1,1.9,2.3,3.8,3.4,5.9c4.1,7,8.4,14.1,14.1,20.7
		c5.2,8.9,11.8,22,15,32.3c0.1,0.6,0.4,1.1,0.8,1.5c5.5,5.8,14,8.4,24.1,7.6c15.8-2.3,19.1,0.5,21.2,2.5c1.1,1,2.5,2.2,4.7,2.6
		l36.1,0.6c10.9-0.5,22.1-1.2,33.5,0l18.7,4.3c1.2,0.3,2.5,0,3.4-1c0.8-0.7,1.2-1.8,1.2-2.9C541,577.2,541,577,540.9,576.8
		L540.9,576.8z"/>
	<path d="M528.3,551.4c-5.2-7.4-10.3-18.4-19.9-22.3l-6.9-13c-9.5-11.8-20.4-22.4-31.3-33.2c-0.8-9.2-9.3-13.7-13.2-21.7
		c-7.1-4-14.5-14.5-18.5-23.1c-3-5.5-7.5-12.8-10.7-18.1c6.2,0,13.6,4.6,19.4,7.2c18.1,7.4,33.2,15.6,51.6,25.4
		c5.4,3,7.7,5.9,13,7.1c1.8,0.5,5.6,0,6.7-3c1-6.3-4.9-14-8.6-19.7c-11.4-16.2-21.8-32.7-37.2-45.6l-8.1-8.1
		c-41-29.5-60.7-73.9-99.4-106.3c-31.6-21.5-57-53.2-84.8-81c-9.6-8.2-19.2-16.3-29.8-22.1c-16.8-16.8-40.9-33.1-32.5-59.6
		c4.8-14.8,9.9-31.4,24.5-41.6l13.7-17.2c20.2-15,41.3-27.9,65.3-34c1.8-0.8,0.5-2.1,0-3c-7.7-5.6-17-7.3-26.8-8.4
		c-18.4-2.3-36.9-2.3-55.4,0c-25-7.7-57.9-10.7-81.8,1.5c-14.7,8.2-14.4,26.9-21.6,35c-28,26.4-37.1,57.4-50.1,89.9
		c-6.2,13.6-15.8,36-26.6,49.5c-4.5,10.7-10.3,23.3-0.7,43.8c2.9,6,6.6,9.6,9.7,14.1c33.2,45.8,47.4,84.4,80.7,124.4
		c20.2,19.9,43.9,32.5,70.3,38.2c21.4,17.3,24,40.1,38.4,60c5.2,9-1.6,17.8-1.5,27.1c0.7,11.7,3.1,21-0.6,30.9
		c-1.2,3.3-3,7.3-4.9,11.5c4.3-0.8,8.7-1.5,13-2.1c3.3-6.4,6-11.8,7.6-14.7c6.6-13.3,19.1-20.9,19.9-28.7
		c0.4-10.8,1.6-21.5,4.9-31.3c1.8-1.1,3.3-2.1,4.9-4.3c3.3-4.4-4.8-13.3,2.3-16.5c6.3-2,14.1-1.3,19.5,2.4c5.8,5.9,7,13.7,12.2,19.9
		c3.6,13.3-0.1,29.6,9.2,40.5c3.6,10.1-2.5,21.3-5.3,28.3c-0.8,2.1-1.9,4.3-3,6.6c3.7,0.7,7.4,1.7,11,2.6c4.1-7.1,8-14.4,11.5-22.1
		c2.9-7.4,2.3-16.3,3.4-24.4c8.5,11.4,13.7,24.7,23.8,35.8c5.6,9.6,12.2,22.8,15.4,33.2c5.6,5.8,14.1,6.9,21,6.3
		c23.3-3.4,22.6,4.4,26.7,5.1c22.6,3.3,45.2-2.1,69.5,0.6l19.1,4.4C535.8,568.5,531.8,559.1,528.3,551.4L528.3,551.4z M220,20.7
		c2.5-2.6,6.5-3,9.6-2.7v1.9c-1.5,1.9-4.9,4.7-8.4,3C220.6,22.4,219.6,21.9,220,20.7L220,20.7z M218.5,60.5
		c8.2-18,9.9-15.2,22.1-13.7c5.3-0.8,8.5-4.3,11.4-8l-0.8-1.1c-7,1.6-13.9,7-21.4,3.8c-3-2.2-3.7-5.7-2.8-9.2
		c6.5-7.8,21.3-0.9,29.1-7.1c2.5-3.1-4-4.4-5.5-5.5c-1.4-0.8-4.3,0.1-4.3-2.3c2.9-2.2,7.3-1.1,10.6-1.4c5.5,0,12.9-2.9,13,1.8
		c0,8.1-13.7,10.8-12.2,16.4c2,3.7,5.8,2.1,8.8,0.8c7.4-3.3,13.6-9.8,21.4-12.2c1.6-0.4,2.6,0.5,2.7,1.9v1.1
		c-21.1,11-40.6,26.2-60.4,40.5c-3.7,2.2-7.1,4.3-11.5,3C216.2,67.3,218.8,63.4,218.5,60.5L218.5,60.5z M139.5,75.3
		c3.7,5.5-12.9,8.4-1.5,10.7c2.1,8.6-13.3,11-19.1,17.1c0.1,1.1-0.3,2.9,1.9,2.3c5.3-0.4,13.2-9.6,14.5-5c1.1,6.2-6,6.9-9.6,9.2
		c-4.4,2.1-9.6,4.5-11.8,9.6c-0.8,2.5,3,1.7,4.2,1.1c4.5-1.4,10.8-9.1,12.6-6.4c0.8,2.3-1.1,4.7-2.8,6.4
		c-6.3,4.8-16.5,3.8-19.5,12.6c-0.3,2.2,3.7,3.5,6.2,2.4c4-1.8,9.2-10.2,11.4-6.9c1,2.9-1.4,5.8-3.8,7.3
		c-10.8,9.7-22.4,18-35.5,22.1c-1.7-2.3-0.3-5.3,0.4-7.7c9.6-28.7,22.4-56.3,39-82.1c3.6-4.1,11.1-7,14.9-1.9
		c-0.1,5.5-7.9,4.3-8.8,9.2C134.4,77.2,137.1,75.4,139.5,75.3L139.5,75.3z M202.5,27.6c-3.2,0.3-9.6-4.6-12.2,0.8
		c-1.1,3.2,1.1,8.8-3.4,9.6c-2.6,0.3-6.3,0.2-6.4-2.7c-0.7-3.7-0.8-8,1.5-11.1c2.3-5.1,8.9-8.5,16.2-7.3c3.1,0.7,6.3,2.9,7.8,6.9
		C206.6,26.2,204.8,27.1,202.5,27.6L202.5,27.6z M253.9,195.3l-1.1-4.3c11.3,6,22,14.3,31.3,24c10,9.1,21.4,23.9,21.4,25.6
		c-1.8,1.5-9.5-7-15.6-6.9c-3.8,0.9,1.1,6.4-1.9,7.7c-4.1,1.5-24-7.7-31.3-18c1.1-0.4,3.3-0.4,3-1.9c1-1.6-7.7-4.7-6.4-7.7
		c0,0,1.9,1.6,3.4,1.1c3.6-3.5-6.6-7.2-0.8-9.9c0.3-3.4-3.6-6-4.9-8.4C251.7,196.3,253.1,196.1,253.9,195.3L253.9,195.3z
		 M358.4,358.5c-4-3.3-7.4-7.6-12.2-8.8c-2.1,0.3-1.8,1.8-1.8,2.6c2.3,3.5,11.4,4.8,8.6,8.8c-6.2,3.8-11.7-3.3-17.2-5.8
		c-17.2-13.2-33.5-28.7-49.7-43.1c-4.1-4-7.4-9.3-6.2-10.3c1-1.2,7.3,2.6,9.4,3.7c2.1,1.1,2.1-1.4,2.1-1.4
		c-14.3-15.6-41.6-26.6-40.1-51.2c0.4-2,2.1-4,3.8-4.9c5.6-4.3,51.2,9.7,70.3,21c20.6,11.1,39,29.5,52.3,49.3c0.1,1,0.6,1.9,0.4,3
		c-1.2,1.9-4.1,0.2-6.8-1.9c-3.3-2.3-6.3-5.4-9.9-6.9l-1.1,1.1c7.7,10.1,24.3,16.5,24.2,30.9l-2.4,0.3c-6.9-4.5-13.5-10.7-20.6-13.2
		c-1.8,0.8,0,2.3,0.8,3c7.1,5.1,14.5,10.1,21.4,16c1.5,2.1,1.9,5.1,1.1,7.7h-2.4c-5.8-4.1-10.4-7.7-18-10.7c-1.5,3,1.9,4.5,5.3,6.9
		c5.4,3,17.3,6.4,12.2,12.6C372.6,374.5,364.7,363.4,358.4,358.5L358.4,358.5z M462.3,489.5c-6.7-1.5-11.1-8.7-16.8-13
		c-3-3.4-5.2-7.1-8.1-10.7c-1.5-0.8-2.6,0-2.6,1.9c-2.9,9.7,16,27.4,22.9,41.6c1.4,3.7,3.8,7.9,2.3,11.8c-3.7,2.2-15.1-0.4-18-1.5
		c-6.6-4-10.4-20.7-19.1-31.3c-1.8-0.8-1.6-3.4-3.8-3c-2.7,2.4,0.3,5.3,0.4,7.9c2.5,6,7.7,11.2,7.3,18l-3.4-0.4
		c-7.3-9.9-13.6-20.6-21.8-29.8c-3.4,2.6,0,6.2,0,9.2c3,7.7,8.5,14.1,9.6,22.5c0,2.6-3.6,1.4-4.9,1.1c-13.7-12.8-18-30.9-29.4-45.4
		c-1.8-0.2-2.3,1.5-3,2.7c2.3,12.9,11.1,23.1,9.9,37.5c-0.7,0.4-1,1.5-1.9,1.1c-8.6-12.5-22.1-26.5-13.3-42.8
		c4.4-14-7-27.1-0.4-40.5c4.2-4.5,10.5-3.8,16.4-3c3-4,1.5-10.2,7.3-12.6c4.9-3.3,12.7-1.9,17.6,0.8c18.8,23.3,34.4,47.9,52.7,71.4
		C462,485.2,465,487.8,462.3,489.5L462.3,489.5z"/>
	<g>
		<path class="st0" d="M393,576.9c-2.2-13.4-6-21.8-11.7-24.8c-26.3-13.6-54.3-19.9-88.4-19.9c-34,0-62,6.3-88.4,19.9
			c-5.5,3-9.3,11.4-11.5,24.8c-1.6,9.7-1.6,18.5-1.6,18.9s0.1,9.2,1.6,18.9c2.2,13.4,6,21.8,11.5,24.8
			c26.3,13.6,54.3,19.9,88.4,19.9c34,0,62-6.3,88.4-19.9c5.5-3,9.3-11.4,11.5-24.8c1.7-9.8,1.7-18.5,1.7-19
			C394.6,595.4,394.6,586.6,393,576.9L393,576.9z"/>
		<g>
			<path d="M279.2,598.2h-1.4c-1.6,0-3.3,1.2-3.3,4.4v6.9c0,3.3,1.8,4.4,3.3,4.4h1.4c1.6,0,3.3-1.3,3.3-4.4v-6.9
				C282.5,599.4,280.7,598.2,279.2,598.2L279.2,598.2z M279.2,577.7h-1.4c-1.6,0-3.3,1.2-3.3,4.4v5.2c0,3.3,1.8,4.4,3.3,4.4h1.4
				c1.6,0,3.3-1.2,3.3-4.4v-5.2C282.5,578.8,280.7,577.7,279.2,577.7z M307.3,577.7c-2.3,0-3.7,0.8-3.7,4.1v9.3
				c0,3.3,1.4,4.1,3.7,4.1c2.1,0,3.7-1,3.7-4.1v-9.4C311,578.5,309.6,577.7,307.3,577.7L307.3,577.7z"/>
			<path d="M379.5,555.4c-25.7-13.2-53.3-19.4-86.6-19.5c-33.4,0-61,6.2-86.8,19.5c-8.9,4.9-11.1,30.9-11.3,40.3
				c0.2,9.5,2.4,35.4,11.3,40.4c25.8,13.3,53.3,19.5,86.6,19.5c33.4,0,60.9-6.2,86.8-19.5c8.9-4.9,11.1-30.9,11.2-40.5
				C390.8,586.2,388.6,560.3,379.5,555.4L379.5,555.4z M371.3,628.2l-0.3,0.3c-23.2,12-47.9,17.4-78,17.4c-30.1,0-54.9-5.5-78-17.4
				l-0.3-0.1c-4.5-3.7-7.1-21.2-7.3-32.4c0.1-11.1,2.7-28.6,7.1-32.4l0.3-0.3c23.2-11.9,47.9-17.4,78-17.4c30.1,0,54.9,5.5,78,17.4
				l0.3,0.1c4.5,3.7,7.1,21.1,7.3,32.4C378.3,606.9,375.8,624.4,371.3,628.2L371.3,628.2z"/>
			<path d="M367.7,566.7c-22.1-11.2-45.8-16.6-74.8-16.6c-28.8,0-52.5,5.2-74.6,16.6c-2.5,2.3-5.6,15.7-5.8,29.1
				c0.1,13.2,3.3,26.9,5.8,29.1c22.1,11.3,45.8,16.6,74.7,16.6c28.8,0,52.6-5.2,74.7-16.6c2.5-2.3,5.6-15.6,5.8-29.1
				C373.4,582.6,370.2,568.9,367.7,566.7L367.7,566.7z M261.2,620h-22.8v-6.7h7.8v-33.4l-7.8,2.5v-7.1l10-3.4h5.6v41.6h7.2
				L261.2,620L261.2,620z M290.2,587.2c0,3-0.7,7-4.7,7.5c4.3,0.8,4.7,5.8,4.7,8.4v7.1c0,6.7-3.6,10.3-10.7,10.3h-2.2
				c-7,0-10.7-3.4-10.7-10.3v-7.1c0-2.6,0.5-7.6,4.7-8.4c-4-0.7-4.7-4.5-4.7-7.5v-5.9c0-6.7,3.6-10.3,10.7-10.3h2.2
				c7,0,10.7,3.4,10.7,10.3L290.2,587.2L290.2,587.2z M318.8,610.7c0,7.1-3.8,10-11.2,10h-0.1c-7.3,0-11.3-2.7-11.3-10v-4.5h7.7v3.7
				c0,3.3,1.2,4.1,3.6,4.1c2.3,0,3.5-0.8,3.5-4.1v-10c-1.1,1.2-2.5,2.2-5.6,2.2c-5.5,0-9.6-2.8-9.6-10v-11c0-7.1,4.1-10,11.4-10h0.1
				c7.3,0,11.4,2.7,11.4,10v29.7H318.8L318.8,610.7z M347.5,586.7c0,6-4,8.6-8.5,13.2c-4,3.9-6.6,6.5-6.6,9.2v4.4h15.2v6.6h-22.9
				v-11.3c0-6.2,5.1-10.2,9.9-14.7c3.7-3.6,5.4-4.9,5.4-7.5v-4.7c0-3.3-1.6-4.1-3.8-4.1c-2.2,0-3.7,0.8-3.7,4.1v7h-7.6v-7.8
				c0-7.2,4-10,11.4-10h0.1c7.3,0,11.4,2.7,11.4,10v5.6L347.5,586.7L347.5,586.7z"/>
		</g>
	</g>
</g>
</svg>
